<svg width="20" height="22" viewBox="0 0 20 22" fill="none" xmlns="http://www.w3.org/2000/svg">
<path d="M4.44787 5.48288C3.11524 5.48299 1.78272 5.48607 0.450087 5.49235C0.303571 5.74564 0.222332 6.03625 0.221671 6.33809C0.214846 9.44631 0.214846 12.5544 0.221671 15.6626C0.222992 16.2661 0.546628 16.8254 1.06984 17.1298C2.19728 17.7854 3.32362 18.4401 4.44787 19.0916C4.44776 14.5552 4.44776 10.0191 4.44787 5.48288Z" fill="url(#paint0_linear_2025_2016)"/>
<path d="M3.82902 7.43714C3.68294 7.69021 3.60225 7.98126 3.60214 8.28365C3.60137 11.3975 3.60192 14.5114 3.6039 17.6253C3.60434 18.2298 3.92644 18.7892 4.44811 19.0915C6.01113 19.9973 7.57042 20.8969 9.12398 21.7839C9.38014 21.9302 9.66602 22.0018 9.95266 22C12.032 17.1234 14.126 12.2666 16.1633 7.48788C12.052 7.45211 7.94051 7.43516 3.82902 7.43714Z" fill="url(#paint1_linear_2025_2016)"/>
<path d="M19.5311 5.61378C16.3474 5.55841 13.1637 5.52065 9.98005 5.5004C9.99832 11.0002 9.98918 16.5002 9.95264 22C10.2464 21.9981 10.5411 21.919 10.8056 21.7629C13.497 20.1737 16.2008 18.5767 18.9072 17.0037C19.4327 16.698 19.7602 16.1472 19.765 15.5575C19.7892 12.5195 19.7891 9.48144 19.7647 6.44345C19.7624 6.14844 19.6793 5.86344 19.5311 5.61378Z" fill="url(#paint2_linear_2025_2016)"/>
<path d="M10.805 0.237565C10.2826 -0.0712093 9.64299 -0.0797966 9.1233 0.216539C6.45231 1.7417 3.76471 3.30374 1.06995 4.87073C0.808397 5.02297 0.596051 5.23906 0.450195 5.49213C1.57499 6.1372 2.70133 6.78634 3.82867 7.43714C7.2941 5.672 10.7528 3.91765 14.1889 2.23387C13.0592 1.56865 11.931 0.902339 10.805 0.237565Z" fill="url(#paint3_linear_2025_2016)"/>
<path d="M18.9071 4.99722C18.9058 5.00206 14.1872 2.23729 14.189 2.23388C13.6648 1.92499 13.0227 1.91343 12.5038 2.20614C9.83076 3.71258 7.14238 5.26042 4.44817 6.81761C4.18662 6.96886 3.97438 7.1844 3.82886 7.43725C5.88416 8.62392 7.94244 9.81631 9.9994 11.0003C13.1849 9.16705 16.3674 7.35403 19.531 5.61367C19.383 5.36412 19.1697 5.1499 18.9071 4.99722Z" fill="url(#paint4_linear_2025_2016)"/>
<defs>
<linearGradient id="paint0_linear_2025_2016" x1="-0.438809" y1="15.1796" x2="29.1196" y2="-14.3787" gradientUnits="userSpaceOnUse">
<stop stop-color="#FC54FF"/>
<stop offset="0.4062" stop-color="#FD9BFF"/>
<stop offset="1" stop-color="white"/>
</linearGradient>
<linearGradient id="paint1_linear_2025_2016" x1="-10.5337" y1="32.1431" x2="69.0612" y2="-47.4517" gradientUnits="userSpaceOnUse">
<stop stop-color="#FC54FF"/>
<stop offset="0.4062" stop-color="#FD9BFF"/>
<stop offset="1" stop-color="white"/>
</linearGradient>
<linearGradient id="paint2_linear_2025_2016" x1="-7.47062" y1="33.2078" x2="40.9427" y2="-15.2056" gradientUnits="userSpaceOnUse">
<stop stop-color="#FC54FF"/>
<stop offset="0.4062" stop-color="#FD9BFF"/>
<stop offset="1" stop-color="white"/>
</linearGradient>
<linearGradient id="paint3_linear_2025_2016" x1="-9.87037" y1="21.0119" x2="23.121" y2="-11.9795" gradientUnits="userSpaceOnUse">
<stop stop-color="#FC54FF"/>
<stop offset="0.4062" stop-color="#FD9BFF"/>
<stop offset="1" stop-color="white"/>
</linearGradient>
<linearGradient id="paint4_linear_2025_2016" x1="-33.1428" y1="51.3072" x2="41.1359" y2="-22.9715" gradientUnits="userSpaceOnUse">
<stop stop-color="#FC54FF"/>
<stop offset="0.4062" stop-color="#FD9BFF"/>
<stop offset="1" stop-color="white"/>
</linearGradient>
</defs>
</svg>
