<svg width="35" height="33" viewBox="0 0 35 33" fill="none" xmlns="http://www.w3.org/2000/svg">
<path d="M34.2446 25.9146C34.2446 27.1263 33.5696 29.4596 32.053 30.7413C31.7496 30.9746 31.4463 30.8429 31.5796 30.5029C32.0213 29.4229 33.0313 26.9246 32.558 26.3496C32.223 25.9129 30.8396 25.9463 29.6596 26.0463C29.1213 26.1146 28.648 26.1462 28.2813 26.2213C27.9413 26.2479 27.873 25.9496 28.213 25.7163C28.6559 25.4039 29.1452 25.1632 29.663 25.0029C31.5796 24.4296 33.7946 24.7746 34.113 25.1413C34.173 25.2113 34.2446 25.4096 34.2446 25.9146ZM31.0413 28.0696C30.6031 28.4075 30.1413 28.7139 29.6596 28.9863C26.123 31.1113 21.5413 32.2246 17.563 32.2246C11.158 32.2246 5.42962 29.8629 1.08295 25.9113C0.70962 25.6079 1.01795 25.1679 1.45462 25.4062C6.13795 28.1396 11.9346 29.7929 17.9346 29.7929C21.7113 29.7929 25.7813 29.0863 29.6596 27.5663C29.9313 27.4646 30.2346 27.3263 30.4996 27.2296C31.1113 26.9546 31.6496 27.6329 31.0413 28.0696ZM20.758 9.68625C20.758 7.95125 20.828 6.92958 20.253 6.05292C19.743 5.33125 18.8646 4.89792 17.638 4.96625C16.308 5.03958 14.8796 5.91125 14.5163 7.50958C14.4446 7.87625 14.2313 8.23625 13.788 8.31458L9.72962 7.79792C9.43962 7.73125 8.99795 7.50958 9.14295 6.92958C10.0146 2.34458 13.933 0.74625 17.6396 0.53125H18.5096C20.543 0.53125 23.1563 1.11292 24.828 2.63792C26.8563 4.53125 26.6396 7.07458 26.6396 9.83792V16.3829C26.6396 18.3463 27.4363 19.2163 28.2363 20.2396C28.453 20.6046 28.528 21.0346 28.163 21.3313C27.1129 22.2674 26.0478 23.1864 24.968 24.0879C24.6763 24.3096 24.153 24.3329 23.9513 24.1629C22.668 23.0879 22.3546 22.4913 21.5596 21.3996C20.1763 22.8513 19.0146 23.6529 17.633 24.0879C16.6614 24.3352 15.6621 24.4562 14.6596 24.4479C11.1763 24.4479 8.41795 22.2763 8.41795 17.9813C8.41795 14.5663 10.2346 12.2446 12.918 11.1463C15.6013 10.0463 19.5013 9.69625 20.758 9.68958M19.963 18.3429C20.8296 16.8896 20.758 15.6996 20.758 13.0346C19.6713 13.0346 18.5813 13.1096 17.6396 13.3313C15.898 13.8363 14.5146 14.9313 14.5146 17.2563C14.5146 19.0729 15.4613 20.3096 17.058 20.3096C17.278 20.3096 17.4713 20.2846 17.638 20.2346C18.7546 19.9246 19.4513 19.3646 19.963 18.3429Z" fill="#FF9900"/>
<path d="M20.7599 9.68625C20.7599 7.95125 20.8299 6.92958 20.2549 6.05292C19.7449 5.33125 18.8666 4.89792 17.6399 4.96625C16.3099 5.03958 14.8816 5.91125 14.5182 7.50958C14.4466 7.87625 14.2332 8.23625 13.7899 8.31458L9.73157 7.79792C9.44157 7.73125 8.99991 7.50958 9.14491 6.92958C10.0166 2.34458 13.9349 0.74625 17.6416 0.53125H18.5116C20.5449 0.53125 23.1582 1.11292 24.8299 2.63792C26.8582 4.53125 26.6416 7.07458 26.6416 9.83792V16.3829C26.6416 18.3463 27.4382 19.2163 28.2382 20.2396C28.4549 20.6046 28.5299 21.0346 28.1649 21.3313C27.1149 22.2674 26.0498 23.1864 24.9699 24.0879C24.6782 24.3096 24.1549 24.3329 23.9532 24.1629C22.6699 23.0879 22.3566 22.4913 21.5616 21.3996C20.1782 22.8512 19.0166 23.6529 17.6349 24.0879C16.6634 24.3352 15.664 24.4562 14.6616 24.4479C11.1782 24.4479 8.41991 22.2763 8.41991 17.9813C8.41991 14.5663 10.2366 12.2446 12.9199 11.1463C15.6032 10.0463 19.5032 9.69625 20.7599 9.68958M19.9649 18.3429C20.8316 16.8896 20.7599 15.6996 20.7599 13.0346C19.6732 13.0346 18.5832 13.1096 17.6416 13.3313C15.8999 13.8363 14.5166 14.9313 14.5166 17.2563C14.5166 19.0729 15.4632 20.3096 17.0599 20.3096C17.2799 20.3096 17.4732 20.2846 17.6399 20.2346C18.7566 19.9246 19.4532 19.3646 19.9649 18.3429Z" fill="black"/>
</svg>
