<svg width="34" height="34" viewBox="0 0 34 34" fill="none" xmlns="http://www.w3.org/2000/svg">
<g clip-path="url(#clip0_209_3267)">
<path d="M32.9296 15.6635L27.6977 12.7605C27.388 12.6056 27.0396 12.6056 26.73 12.7605L24.6398 13.9413V5.87061H9.15702V13.9413L7.06677 12.7605C6.75718 12.6056 6.40882 12.6056 6.0991 12.7605L0.867261 15.6635C0.576894 15.8376 0.383423 16.1667 0.383423 16.515C0.383423 16.8634 0.576894 17.1923 0.867261 17.3666L4.58959 19.4181L14.4792 28.011H19.3176L29.2073 19.4181L32.9296 17.3666C33.22 17.1923 33.4134 16.8634 33.4134 16.515C33.4134 16.1667 33.22 15.8376 32.9296 15.6635ZM16.8984 18.3149L11.9997 15.5474H21.7971L16.8984 18.3149Z" fill="url(#paint0_linear_209_3267)"/>
<path d="M33.0468 21.4695L29.3244 19.4181L17.4994 26.0757C17.3446 26.153 17.1704 26.1918 17.0156 26.1918C16.8608 26.1918 16.6866 26.153 16.5318 26.0757L4.70677 19.4181L0.984448 21.4695C0.694081 21.6437 0.50061 21.9727 0.50061 22.3211C0.50061 22.6695 0.694081 22.9984 0.984448 23.1726L16.5318 31.8817C16.6866 31.9591 16.8608 31.9979 17.0156 31.9979C17.1704 31.9979 17.3446 31.9591 17.4994 31.8817L33.0468 23.1726C33.3371 22.9984 33.5306 22.6695 33.5306 22.3211C33.5306 21.9727 33.3371 21.6437 33.0468 21.4695ZM0.984448 11.5605L16.5318 20.2696C16.6866 20.347 16.8608 20.3857 17.0156 20.3857C17.1704 20.3857 17.3446 20.347 17.4994 20.2696L33.0468 11.5605C33.3371 11.3863 33.5306 11.0573 33.5306 10.709C33.5306 10.3606 33.3371 10.0315 33.0468 9.85743L17.4994 1.14835C17.1899 0.99352 16.8414 0.99352 16.5318 1.14835L0.984448 9.85743C0.694081 10.0315 0.50061 10.3606 0.50061 10.709C0.50061 11.0573 0.694081 11.3863 0.984448 11.5605ZM20.209 9.45094C19.8219 9.08322 19.8219 8.46391 20.209 8.0962C20.5767 7.70919 21.196 7.70919 21.5637 8.0962L23.499 10.0315C23.8861 10.3993 23.2132 13.2055 22.8261 13.5732L27.2932 7.48617L11.9773 6.91182C11.6292 7.29889 7.21973 13.9604 6.87143 13.5732C6.48436 13.2055 18.6101 16.5329 18.9971 16.1652L21.4475 10.709L20.209 9.45094ZM15.5834 12.4121L16.5511 8.54139C16.6866 8.01878 17.2091 7.70919 17.7317 7.84453C18.2543 7.96066 18.5639 8.48327 18.4478 9.00581L17.4801 12.8765C17.3152 13.5087 16.6011 13.7242 16.2995 13.5732C15.777 13.4572 15.4673 12.9346 15.5834 12.4121ZM10.5322 10.0315L12.4676 8.0962C12.8353 7.70919 13.4546 7.70919 13.8223 8.0962C14.2094 8.46391 14.2094 9.08322 13.8223 9.45094L12.5837 10.709L13.8222 11.9669C14.2093 12.3346 14.2093 12.9539 13.8222 13.3216C13.4741 13.7087 12.8158 13.7088 12.4675 13.3216L10.5322 11.3863C10.1451 11.0186 10.1451 10.3993 10.5322 10.0315Z" fill="url(#paint1_linear_209_3267)"/>
</g>
<defs>
<linearGradient id="paint0_linear_209_3267" x1="16.8984" y1="31.0073" x2="16.8984" y2="2.18389" gradientUnits="userSpaceOnUse">
<stop stop-color="#EEEEFF"/>
<stop offset="1" stop-color="#8542FD"/>
</linearGradient>
<linearGradient id="paint1_linear_209_3267" x1="17.0156" y1="36.1885" x2="17.0156" y2="-4.12402" gradientUnits="userSpaceOnUse">
<stop stop-color="#8542FD"/>
<stop offset="1" stop-color="#EEEEFF"/>
</linearGradient>
<clipPath id="clip0_209_3267">
<rect width="33.03" height="33.03" fill="white" transform="translate(0.383423)"/>
</clipPath>
</defs>
</svg>
