<svg width="34" height="34" viewBox="0 0 34 34" fill="none" xmlns="http://www.w3.org/2000/svg">
<g clip-path="url(#clip0_209_3243)">
<path d="M7.23613 8.77368C6.1513 8.77368 5.30078 9.6242 5.30078 10.709C5.30078 11.7939 6.1513 12.6444 7.23613 12.6444C8.32096 12.6444 9.17148 11.7939 9.17148 10.709C9.17148 9.6242 8.32096 8.77368 7.23613 8.77368ZM13.0422 10.709C13.0422 9.6242 12.1917 8.77368 11.1068 8.77368C10.022 8.77368 9.17148 9.6242 9.17148 10.709C9.17148 11.7939 10.022 12.6444 11.1068 12.6444C12.1917 12.6444 13.0422 11.7939 13.0422 10.709ZM14.9775 12.6444C16.0624 12.6444 16.9129 11.7939 16.9129 10.709C16.9129 9.6242 16.0624 8.77368 14.9775 8.77368C13.8927 8.77368 13.0422 9.6242 13.0422 10.709C13.0422 11.7939 13.8927 12.6444 14.9775 12.6444ZM32.893 31.1968L32.8912 31.1958C31.6797 30.4512 31.2771 28.817 32.0028 27.6036C32.9479 25.9593 33.4279 24.1819 33.4279 22.3211C33.4279 16.4518 28.5874 11.6767 22.7189 11.6767C21.859 11.6767 21.0444 11.7712 20.2979 11.9564C19.9464 12.0443 19.6723 12.3231 19.5892 12.6765C18.8445 15.8876 16.2873 18.4448 13.0744 19.1923C12.7209 19.2744 12.4431 19.5476 12.3543 19.9001C12.169 20.6447 12.0745 21.4593 12.0745 22.3211C12.0745 28.1905 16.8505 33.0301 22.7189 33.0301H32.4602C32.9081 33.0301 33.2994 32.7211 33.4014 32.2845C33.5054 31.8479 33.2937 31.3972 32.893 31.1968Z" fill="url(#paint0_linear_209_3243)"/>
<path d="M7.23613 8.77368C6.1513 8.77368 5.30078 9.6242 5.30078 10.709C5.30078 11.7939 6.1513 12.6444 7.23613 12.6444C8.32096 12.6444 9.17148 11.7939 9.17148 10.709C9.17148 9.6242 8.32096 8.77368 7.23613 8.77368ZM13.0422 10.709C13.0422 9.6242 12.1917 8.77368 11.1068 8.77368C10.022 8.77368 9.17148 9.6242 9.17148 10.709C9.17148 11.7939 10.022 12.6444 11.1068 12.6444C12.1917 12.6444 13.0422 11.7939 13.0422 10.709ZM14.9775 12.6444C16.0624 12.6444 16.9129 11.7939 16.9129 10.709C16.9129 9.6242 16.0624 8.77368 14.9775 8.77368C13.8927 8.77368 13.0422 9.6242 13.0422 10.709C13.0422 11.7939 13.8927 12.6444 14.9775 12.6444ZM32.893 31.1968L32.8912 31.1958C31.6797 30.4512 31.2771 28.817 32.0028 27.6036C32.9479 25.9593 33.4279 24.1819 33.4279 22.3211C33.4279 16.4518 28.5874 11.6767 22.7189 11.6767C21.859 11.6767 21.0444 11.7712 20.2979 11.9564C19.9464 12.0443 19.6723 12.3231 19.5892 12.6765C18.8445 15.8876 16.2873 18.4448 13.0744 19.1923C12.7209 19.2744 12.4431 19.5476 12.3543 19.9001C12.169 20.6447 12.0745 21.4593 12.0745 22.3211C12.0745 28.1905 16.8505 33.0301 22.7189 33.0301H32.4602C32.9081 33.0301 33.2994 32.7211 33.4014 32.2845C33.5054 31.8479 33.2937 31.3972 32.893 31.1968Z" fill="url(#paint1_linear_209_3243)"/>
<path d="M11.1074 0C5.2432 0 0.398438 4.84477 0.398438 10.7089C0.398438 12.5668 0.882275 14.386 1.81118 15.9537C2.52726 17.2117 2.1209 18.8181 0.882275 19.5535C0.495205 19.7664 0.321088 20.2115 0.437209 20.6373C0.55333 21.063 0.921047 21.3534 1.36611 21.3534H11.1074C11.9589 21.3534 12.7911 21.2566 13.5072 21.0824C17.436 20.1728 20.5713 17.0375 21.4809 13.1281C21.6551 12.3927 21.7518 11.5799 21.7518 10.7089C21.7518 4.84477 16.9716 0 11.1074 0ZM7.23668 11.6766C6.69472 11.6766 6.269 11.2508 6.269 10.7089C6.269 10.167 6.69472 9.74127 7.23668 9.74127C7.77864 9.74127 8.20436 10.167 8.20436 10.7089C8.20436 11.2508 7.77864 11.6766 7.23668 11.6766ZM11.1074 11.6766C10.5654 11.6766 10.1397 11.2508 10.1397 10.7089C10.1397 10.167 10.5654 9.74127 11.1074 9.74127C11.6493 9.74127 12.0751 10.167 12.0751 10.7089C12.0751 11.2508 11.6493 11.6766 11.1074 11.6766ZM14.9781 11.6766C14.4361 11.6766 14.0104 11.2508 14.0104 10.7089C14.0104 10.167 14.4361 9.74127 14.9781 9.74127C15.52 9.74127 15.9458 10.167 15.9458 10.7089C15.9458 11.2508 15.52 11.6766 14.9781 11.6766ZM18.8488 21.3534C18.3144 21.3534 17.8811 21.7866 17.8811 22.3211C17.8811 22.8555 18.3144 23.2887 18.8488 23.2887C19.3832 23.2887 19.8165 22.8555 19.8165 22.3211C19.8165 21.7866 19.3832 21.3534 18.8488 21.3534ZM22.7195 21.3534C22.1851 21.3534 21.7518 21.7866 21.7518 22.3211C21.7518 22.8555 22.1851 23.2887 22.7195 23.2887C23.2539 23.2887 23.6872 22.8555 23.6872 22.3211C23.6872 21.7866 23.2539 21.3534 22.7195 21.3534ZM26.5902 21.3534C26.0558 21.3534 25.6225 21.7866 25.6225 22.3211C25.6225 22.8555 26.0558 23.2887 26.5902 23.2887C27.1246 23.2887 27.5579 22.8555 27.5579 22.3211C27.5579 21.7866 27.1246 21.3534 26.5902 21.3534Z" fill="url(#paint2_linear_209_3243)"/>
</g>
<defs>
<linearGradient id="paint0_linear_209_3243" x1="19.3643" y1="33.0301" x2="19.3643" y2="8.77368" gradientUnits="userSpaceOnUse">
<stop stop-color="#00B59C"/>
<stop offset="1" stop-color="#9CFFAC"/>
</linearGradient>
<linearGradient id="paint1_linear_209_3243" x1="19.3643" y1="36.3127" x2="19.3643" y2="4.73462" gradientUnits="userSpaceOnUse">
<stop stop-color="#8542FD"/>
<stop offset="1" stop-color="#EEEEFF"/>
</linearGradient>
<linearGradient id="paint2_linear_209_3243" x1="13.9781" y1="26.4404" x2="13.9781" y2="-3.87793" gradientUnits="userSpaceOnUse">
<stop stop-color="#8542FD"/>
<stop offset="1" stop-color="#EEEEFF"/>
</linearGradient>
<clipPath id="clip0_209_3243">
<rect width="33.03" height="33.03" fill="white" transform="translate(0.398438)"/>
</clipPath>
</defs>
</svg>
