<svg width="21" height="24" viewBox="0 0 21 24" fill="none" xmlns="http://www.w3.org/2000/svg">
<path d="M16.2554 16.7747C15.099 17.8145 13.5743 18.3881 11.9003 18.3881C8.21206 18.3881 5.50296 15.679 5.50296 11.958C5.50296 8.2371 8.12813 5.64457 11.9003 5.64457C13.5463 5.64457 15.099 6.19012 16.2834 7.22993L17.0901 7.92003L20.6664 4.34365L19.7712 3.53698C17.6636 1.63921 14.8706 0.571426 11.9003 0.571426C5.26982 0.571426 0.453125 5.35548 0.453125 11.9301C0.453125 18.4767 5.38173 23.4286 11.9003 23.4286C14.9265 23.4286 17.7522 22.3608 19.8271 20.4304L20.6898 19.6237L17.0621 16.052L16.2554 16.7747Z" fill="black"/>
<path d="M11.7235 8.18109C13.8404 8.18109 15.5563 9.89701 15.5563 12.0139C15.5563 14.1308 13.8404 15.8468 11.7235 15.8468C9.60654 15.8468 7.89062 14.1308 7.89062 12.0139C7.89062 9.89701 9.60654 8.18109 11.7235 8.18109Z" fill="#FF3D2E"/>
</svg>
