<svg width="34" height="34" viewBox="0 0 34 34" fill="none" xmlns="http://www.w3.org/2000/svg">
<path fill-rule="evenodd" clip-rule="evenodd" d="M29.2161 24.9379C29.1055 25.0201 28.9882 25.1007 28.865 25.1799C26.5489 26.6682 21.8892 27.7216 16.5153 27.7216C11.1413 27.7216 6.48163 26.6682 4.16559 25.1799C4.04232 25.1007 3.92502 25.0201 3.81445 24.9379V28.4687C3.81445 28.784 3.99824 29.0731 4.28215 29.357C4.67437 29.75 5.25264 30.1079 5.97285 30.4351C8.35014 31.5162 12.1895 32.2042 16.5153 32.2042C20.841 32.2042 24.6804 31.5162 27.0577 30.4351C27.7779 30.1079 28.3562 29.75 28.7484 29.357C29.0323 29.0731 29.2161 28.784 29.2161 28.4687V24.9379Z" fill="url(#paint0_linear_209_3119)"/>
<path fill-rule="evenodd" clip-rule="evenodd" d="M29.2161 18.9609C29.1055 19.0431 28.9882 19.1238 28.865 19.203C26.5489 20.6912 21.8892 21.7447 16.5153 21.7447C11.1413 21.7447 6.48163 20.6912 4.16559 19.203C4.04232 19.1238 3.92502 19.0431 3.81445 18.9609V22.4918C3.81445 22.8071 3.99824 23.0962 4.28215 23.3801C4.67437 23.7731 5.25264 24.1309 5.97285 24.4582C8.35014 25.5392 12.1895 26.2273 16.5153 26.2273C20.841 26.2273 24.6804 25.5392 27.0577 24.4582C27.7779 24.1309 28.3562 23.7731 28.7484 23.3801C29.0323 23.0962 29.2161 22.8071 29.2161 22.4918V18.9609Z" fill="url(#paint1_linear_209_3119)"/>
<path fill-rule="evenodd" clip-rule="evenodd" d="M29.2161 12.9841C29.1055 13.0663 28.9882 13.147 28.865 13.2262C26.5489 14.7144 21.8892 15.7679 16.5153 15.7679C11.1413 15.7679 6.48163 14.7144 4.16559 13.2262C4.04232 13.147 3.92502 13.0663 3.81445 12.9841V16.515C3.81445 16.8302 3.99824 17.1194 4.28215 17.4033C4.67437 17.7963 5.25264 18.1541 5.97285 18.4813C8.35014 19.5624 12.1895 20.2505 16.5153 20.2505C20.841 20.2505 24.6804 19.5624 27.0577 18.4813C27.7779 18.1541 28.3562 17.7963 28.7484 17.4033C29.0323 17.1194 29.2161 16.8302 29.2161 16.515V12.9841Z" fill="url(#paint2_linear_209_3119)"/>
<path fill-rule="evenodd" clip-rule="evenodd" d="M29.2161 7.0072C29.1055 7.08938 28.9882 7.17007 28.865 7.24927C26.5489 8.7375 21.8892 9.79092 16.5153 9.79092C11.1413 9.79092 6.48163 8.7375 4.16559 7.24927C4.04232 7.17007 3.92502 7.08938 3.81445 7.0072V10.538C3.81445 10.8533 3.99824 11.1424 4.28215 11.4263C4.67437 11.8193 5.25264 12.1772 5.97285 12.5044C8.35014 13.5855 12.1895 14.2736 16.5153 14.2736C20.841 14.2736 24.6804 13.5855 27.0577 12.5044C27.7779 12.1772 28.3562 11.8193 28.7484 11.4263C29.0323 11.1424 29.2161 10.8533 29.2161 10.538V7.0072Z" fill="url(#paint3_linear_209_3119)"/>
<path fill-rule="evenodd" clip-rule="evenodd" d="M16.5153 0.825684C20.841 0.825684 24.6804 1.51377 27.0577 2.59483C27.7779 2.92207 28.3562 3.27993 28.7484 3.67291C29.0323 3.9568 29.2161 4.24594 29.2161 4.56122C29.2161 4.8765 29.0323 5.16563 28.7484 5.44953C28.3562 5.8425 27.7779 6.20037 27.0577 6.52761C24.6804 7.60866 20.841 8.29675 16.5153 8.29675C12.1895 8.29675 8.35014 7.60866 5.97285 6.52761C5.25264 6.20037 4.67437 5.8425 4.28215 5.44953C3.99824 5.16563 3.81445 4.8765 3.81445 4.56122C3.81445 4.24594 3.99824 3.9568 4.28215 3.67291C4.67437 3.27993 5.25264 2.92207 5.97285 2.59483C8.35014 1.51377 12.1895 0.825684 16.5153 0.825684Z" fill="url(#paint4_linear_209_3119)"/>
<defs>
<linearGradient id="paint0_linear_209_3119" x1="16.5152" y1="33.1876" x2="16.5152" y2="23.7279" gradientUnits="userSpaceOnUse">
<stop stop-color="#6B7EFE"/>
<stop offset="1" stop-color="white"/>
</linearGradient>
<linearGradient id="paint1_linear_209_3119" x1="16.5152" y1="27.2107" x2="16.5152" y2="17.751" gradientUnits="userSpaceOnUse">
<stop stop-color="#6B7EFE"/>
<stop offset="1" stop-color="white"/>
</linearGradient>
<linearGradient id="paint2_linear_209_3119" x1="16.5152" y1="21.2339" x2="16.5152" y2="11.7742" gradientUnits="userSpaceOnUse">
<stop stop-color="#6B7EFE"/>
<stop offset="1" stop-color="white"/>
</linearGradient>
<linearGradient id="paint3_linear_209_3119" x1="16.5152" y1="15.2569" x2="16.5152" y2="5.79724" gradientUnits="userSpaceOnUse">
<stop stop-color="#6B7EFE"/>
<stop offset="1" stop-color="white"/>
</linearGradient>
<linearGradient id="paint4_linear_209_3119" x1="16.5152" y1="9.30783" x2="16.5152" y2="-0.418364" gradientUnits="userSpaceOnUse">
<stop stop-color="#6B7EFE"/>
<stop offset="1" stop-color="white"/>
</linearGradient>
</defs>
</svg>
