<svg width="25" height="25" viewBox="0 0 25 25" fill="none" xmlns="http://www.w3.org/2000/svg">
<path d="M16.323 13.7331C16.5377 13.9473 16.7798 14.1323 17.043 14.2831C16.0713 15.6132 15.3899 17.1327 15.043 18.7431C15.0126 18.8794 14.9452 19.0048 14.8481 19.1054C14.7511 19.2059 14.6282 19.2778 14.493 19.3131L4.793 21.7331C4.65034 21.7527 4.50566 21.7527 4.363 21.7331C4.16566 21.7299 3.97 21.6962 3.783 21.6331L9.893 15.5231C9.93873 15.4728 9.9759 15.4154 10.003 15.3531C10.2592 15.4328 10.5322 15.4415 10.7929 15.3781C11.0536 15.3147 11.2921 15.1816 11.483 14.9931C11.748 14.7087 11.8922 14.3326 11.8853 13.944C11.8785 13.5554 11.7211 13.1846 11.4462 12.9098C11.1714 12.635 10.8006 12.4776 10.412 12.4707C10.0234 12.4638 9.64735 12.6081 9.363 12.8731C9.16536 13.0685 9.02678 13.3157 8.96311 13.5863C8.89944 13.8569 8.91326 14.14 9.003 14.4031C8.94069 14.4302 8.88326 14.4673 8.833 14.5131L2.733 20.6131C2.60785 20.2944 2.58684 19.9444 2.673 19.6131L5.093 9.91306C5.12826 9.77784 5.20012 9.65496 5.30068 9.55793C5.40124 9.4609 5.52661 9.39347 5.663 9.36306C7.27758 9.01974 8.80106 8.3381 10.133 7.36306C10.2767 7.63127 10.4586 7.87717 10.673 8.09306L16.323 13.7331ZM21.273 8.78306L15.613 3.13306C15.285 2.80636 14.8409 2.62292 14.378 2.62292C13.9151 2.62292 13.471 2.80636 13.143 3.13306L11.733 4.54306C11.5685 4.70497 11.4379 4.89799 11.3487 5.11087C11.2596 5.32376 11.2137 5.55225 11.2137 5.78306C11.2137 6.01386 11.2596 6.24235 11.3487 6.45524C11.4379 6.66812 11.5685 6.86114 11.733 7.02306L17.383 12.6731C17.5449 12.8375 17.7379 12.9682 17.9508 13.0573C18.1637 13.1465 18.3922 13.1924 18.623 13.1924C18.8538 13.1924 19.0823 13.1465 19.2952 13.0573C19.5081 12.9682 19.7011 12.8375 19.863 12.6731L21.273 11.2631C21.6003 10.9334 21.784 10.4876 21.784 10.0231C21.784 9.55848 21.6003 9.11275 21.273 8.78306Z" fill="url(#paint0_linear_2025_2005)"/>
<defs>
<linearGradient id="paint0_linear_2025_2005" x1="-29.0362" y1="53.6974" x2="32.158" y2="-7.49679" gradientUnits="userSpaceOnUse">
<stop stop-color="#EEEEFF"/>
<stop offset="0.532294" stop-color="#B692FE"/>
<stop offset="1" stop-color="#8542FD"/>
</linearGradient>
</defs>
</svg>
