<svg width="36" height="34" viewBox="0 0 36 34" fill="none" xmlns="http://www.w3.org/2000/svg">
<path d="M33.2371 22.11V19.0133H34.2693C34.8399 19.0133 35.3015 18.5516 35.3015 17.9811V13.8521C35.3015 13.2815 34.8398 12.8199 34.2693 12.8199H1.2374C0.666794 12.8199 0.205194 13.2816 0.205194 13.8521V17.9811C0.205194 18.5517 0.66691 19.0133 1.2374 19.0133H2.26961V22.11C2.26961 22.6806 2.73132 23.1423 3.30181 23.1423H1.23728C0.666677 23.1423 0.205078 23.604 0.205078 24.1745V28.3035C0.205078 28.8741 0.666793 29.3357 1.23728 29.3357H2.26949V32.4324C2.26949 33.0029 2.73121 33.4646 3.3017 33.4646H7.43064C8.00125 33.4646 8.46284 33.0029 8.46284 32.4324V29.3357H14.6563V32.4324C14.6563 33.0029 15.118 33.4646 15.6885 33.4646H19.8175C20.3881 33.4646 20.8497 33.0029 20.8497 32.4324V29.3357H27.0431V32.4324C27.0431 33.0029 27.5049 33.4646 28.0753 33.4646H32.2043C32.7748 33.4646 33.2365 33.0029 33.2365 32.4324V29.3357H34.2687C34.8393 29.3357 35.3009 28.874 35.3009 28.3035V24.1745C35.3009 23.6039 34.8392 23.1423 34.2687 23.1423H32.2042C32.7754 23.1422 33.2371 22.6805 33.2371 22.11ZM7.43087 23.1422C8.00148 23.1422 8.46308 22.6805 8.46308 22.1099V19.0132H14.6565V22.1099C14.6565 22.6805 15.1183 23.1422 15.6888 23.1422H7.43087ZM19.8179 23.1422C20.3885 23.1422 20.8501 22.6805 20.8501 22.1099V19.0132H27.0436V22.1099C27.0436 22.6805 27.5053 23.1422 28.0758 23.1422H19.8179ZM16.7212 1.46507C16.7212 0.89446 16.2595 0.432861 15.689 0.432861H10.5277V5.59412C10.5277 6.16462 10.066 6.62633 9.49552 6.62633C8.92491 6.62633 8.46331 6.16462 8.46331 5.59412V0.432861H3.30205C2.73144 0.432861 2.26984 0.894576 2.26984 1.46507V10.7553H16.7213V1.46507H16.7212ZM33.2371 1.46507C33.2371 0.89446 32.7754 0.432861 32.2049 0.432861H27.0436V5.59412C27.0436 6.16462 26.5819 6.62633 26.0114 6.62633C25.4408 6.62633 24.9792 6.16462 24.9792 5.59412V0.432861H19.8179C19.2473 0.432861 18.7857 0.894576 18.7857 1.46507V10.7553H33.2372V1.46507H33.2371Z" fill="url(#paint0_linear_209_3077)"/>
<defs>
<linearGradient id="paint0_linear_209_3077" x1="17.7533" y1="0.432861" x2="17.7533" y2="33.4646" gradientUnits="userSpaceOnUse">
<stop stop-color="#F3DA93"/>
<stop offset="1" stop-color="#F1BB1D"/>
</linearGradient>
</defs>
</svg>
