<svg width="23" height="24" viewBox="0 0 23 24" fill="none" xmlns="http://www.w3.org/2000/svg">
<path d="M22.6357 9.94419H21.7151V9.89676H11.4294V14.4682H17.8883C16.946 17.1293 14.414 19.0396 11.4294 19.0396C7.64257 19.0396 4.57228 15.9693 4.57228 12.1825C4.57228 8.39562 7.64257 5.32534 11.4294 5.32534C13.1774 5.32534 14.7677 5.98476 15.9786 7.06191L19.2111 3.82933C17.17 1.92705 14.4397 0.753906 11.4294 0.753906C5.118 0.753906 0.000854492 5.87105 0.000854492 12.1825C0.000854492 18.4939 5.118 23.611 11.4294 23.611C17.7409 23.611 22.858 18.4939 22.858 12.1825C22.858 11.4162 22.7791 10.6682 22.6357 9.94419Z" fill="#FFC107"/>
<path d="M1.31921 6.86305L5.07407 9.61676C6.09007 7.10133 8.55064 5.32533 11.4301 5.32533C13.1781 5.32533 14.7684 5.98476 15.9792 7.06191L19.2118 3.82933C17.1706 1.92705 14.4404 0.753906 11.4301 0.753906C7.04036 0.753906 3.2335 3.23219 1.31921 6.86305Z" fill="#FF3D00"/>
<path d="M11.429 23.611C14.381 23.611 17.0633 22.4813 19.0913 20.6442L15.5542 17.651C14.3684 18.5533 12.9191 19.0412 11.429 19.0396C8.45648 19.0396 5.93248 17.1442 4.98162 14.499L1.25476 17.3705C3.14619 21.0716 6.98733 23.611 11.429 23.611Z" fill="#4CAF50"/>
<path d="M22.6368 9.94391H21.7163V9.89648H11.4305V14.4679H17.8894C17.4387 15.7344 16.6267 16.8412 15.554 17.6513L15.5557 17.6502L19.0928 20.6433C18.8425 20.8708 22.8591 17.8965 22.8591 12.1822C22.8591 11.4159 22.7803 10.6679 22.6368 9.94391Z" fill="#1976D2"/>
</svg>
