<svg width="34" height="34" viewBox="0 0 34 34" fill="none" xmlns="http://www.w3.org/2000/svg">
<path d="M1.85264 17.8871L30.8499 4.92954L29.7074 8.0791C29.5253 8.58289 29.7852 9.14081 30.2899 9.32379C30.8045 9.50721 31.3545 9.23881 31.5346 8.74126L33.4576 3.43974C33.6479 2.9107 33.3534 2.34042 32.8286 2.17985L27.436 0.527198C26.9265 0.369698 26.3801 0.659104 26.2226 1.17142C26.0651 1.68471 26.3535 2.22732 26.8668 2.38482L29.7823 3.27809L1.05945 16.113C0.569885 16.3322 0.349823 16.9062 0.56901 17.3967C0.790167 17.8909 1.36985 18.1036 1.85264 17.8871ZM32.544 31.5725H31.5726V13.1141C31.5726 12.577 31.138 12.1426 30.6011 12.1426H26.7151C26.1781 12.1426 25.7436 12.5772 25.7436 13.1141V31.5725H23.8006V17.0001C23.8006 16.4631 23.366 16.0286 22.8291 16.0286H18.9431C18.4061 16.0286 17.9717 16.4631 17.9717 17.0001V31.5725H16.0286V20.886C16.0286 20.349 15.5941 19.9146 15.0572 19.9146H11.1712C10.6342 19.9146 10.1997 20.3491 10.1997 20.886V31.5725H8.25654V24.7721C8.25654 24.2351 7.82199 23.8007 7.28507 23.8007H3.39909C2.86206 23.8007 2.42762 24.2352 2.42762 24.7721V31.5726H1.45615C0.91912 31.5726 0.484682 32.0072 0.484682 32.5441C0.484682 33.081 0.919229 33.5156 1.45615 33.5156H32.5441C33.0812 33.5156 33.5156 33.081 33.5156 32.5441C33.5156 32.0072 33.0811 31.5725 32.544 31.5725Z" fill="#04988B"/>
<path d="M1.85264 17.8871L30.8499 4.92954L29.7074 8.0791C29.5253 8.58289 29.7852 9.14081 30.2899 9.32379C30.8045 9.50721 31.3545 9.23881 31.5346 8.74126L33.4576 3.43974C33.6479 2.9107 33.3534 2.34042 32.8286 2.17985L27.436 0.527198C26.9265 0.369698 26.3801 0.659104 26.2226 1.17142C26.0651 1.68471 26.3535 2.22732 26.8668 2.38482L29.7823 3.27809L1.05945 16.113C0.569885 16.3322 0.349823 16.9062 0.56901 17.3967C0.790167 17.8909 1.36985 18.1036 1.85264 17.8871ZM32.544 31.5725H31.5726V13.1141C31.5726 12.577 31.138 12.1426 30.6011 12.1426H26.7151C26.1781 12.1426 25.7436 12.5772 25.7436 13.1141V31.5725H23.8006V17.0001C23.8006 16.4631 23.366 16.0286 22.8291 16.0286H18.9431C18.4061 16.0286 17.9717 16.4631 17.9717 17.0001V31.5725H16.0286V20.886C16.0286 20.349 15.5941 19.9146 15.0572 19.9146H11.1712C10.6342 19.9146 10.1997 20.3491 10.1997 20.886V31.5725H8.25654V24.7721C8.25654 24.2351 7.82199 23.8007 7.28507 23.8007H3.39909C2.86206 23.8007 2.42762 24.2352 2.42762 24.7721V31.5726H1.45615C0.91912 31.5726 0.484682 32.0072 0.484682 32.5441C0.484682 33.081 0.919229 33.5156 1.45615 33.5156H32.5441C33.0812 33.5156 33.5156 33.081 33.5156 32.5441C33.5156 32.0072 33.0811 31.5725 32.544 31.5725Z" fill="url(#paint0_linear_209_3056)"/>
<defs>
<linearGradient id="paint0_linear_209_3056" x1="16.9999" y1="37.9858" x2="16.9999" y2="-5.01597" gradientUnits="userSpaceOnUse">
<stop stop-color="#8542FD"/>
<stop offset="1" stop-color="#EEEEFF"/>
</linearGradient>
</defs>
</svg>
