<svg width="34" height="34" viewBox="0 0 34 34" fill="none" xmlns="http://www.w3.org/2000/svg">
<path d="M5.65808 21.3724C7.26519 21.3724 8.57251 20.0651 8.57251 18.458C8.57251 17.8949 8.40484 17.3735 8.12715 16.9273L12.4808 11.4855C12.7799 11.5895 13.0958 11.6576 13.4298 11.6576C14.0264 11.6576 14.5807 11.4761 15.043 11.1674L18.4326 13.7087C18.3466 13.9833 18.2872 14.2695 18.2872 14.5721C18.2872 16.1792 19.5945 17.4865 21.2016 17.4865C22.8088 17.4865 24.1161 16.1792 24.1161 14.5721C24.1161 13.9185 23.8922 13.3211 23.5275 12.8345L28.2632 5.73107C28.4919 5.78882 28.7272 5.82885 28.9735 5.82885C30.5806 5.82885 31.8879 4.52153 31.8879 2.91442C31.8879 1.30732 30.5806 0 28.9735 0C27.3664 0 26.0591 1.30732 26.0591 2.91442C26.0591 3.56803 26.2829 4.16542 26.6476 4.65201L21.9119 11.7555C21.6832 11.6977 21.4479 11.6577 21.2016 11.6577C20.605 11.6577 20.0507 11.8391 19.5884 12.1479L16.1989 9.60654C16.2848 9.33202 16.3442 9.04569 16.3442 8.74316C16.3442 7.13606 15.0369 5.82874 13.4298 5.82874C11.8227 5.82874 10.5154 7.13606 10.5154 8.74316C10.5154 9.30621 10.6831 9.82769 10.9607 10.2738L6.6071 15.7156C6.30808 15.6117 5.9921 15.5436 5.65808 15.5436C4.05098 15.5436 2.74366 16.8509 2.74366 18.458C2.74366 20.0651 4.05098 21.3724 5.65808 21.3724ZM32.8595 31.0871H31.888V12.6291C31.888 12.0921 31.4535 11.6576 30.9166 11.6576H27.0306C26.4937 11.6576 26.0592 12.0921 26.0592 12.6291V31.0872H24.1162V20.401C24.1162 19.8641 23.6816 19.4295 23.1447 19.4295H19.2588C18.7218 19.4295 18.2873 19.8641 18.2873 20.401V31.0872H16.3443V16.515C16.3443 15.978 15.9098 15.5436 15.3729 15.5436H11.4869C10.95 15.5436 10.5155 15.9781 10.5155 16.515V31.0871H8.57251V24.2867C8.57251 23.7497 8.13797 23.3153 7.60107 23.3153H3.7151C3.17819 23.3153 2.74366 23.7498 2.74366 24.2867V31.0871H1.77222C1.23521 31.0871 0.800781 31.5217 0.800781 32.0586C0.800781 32.5955 1.23531 33.03 1.77222 33.03H32.8595C33.3965 33.03 33.8309 32.5955 33.8309 32.0586C33.8309 31.5217 33.3964 31.0871 32.8595 31.0871Z" fill="url(#paint0_linear_209_3217)"/>
<defs>
<linearGradient id="paint0_linear_209_3217" x1="17.3158" y1="37.5" x2="17.3158" y2="-5.5" gradientUnits="userSpaceOnUse">
<stop stop-color="#8542FD"/>
<stop offset="1" stop-color="#EEEEFF"/>
</linearGradient>
</defs>
</svg>
