<svg width="34" height="34" viewBox="0 0 34 34" fill="none" xmlns="http://www.w3.org/2000/svg">
<path fill-rule="evenodd" clip-rule="evenodd" d="M11.3752 1.6439H15.4708V9.81507C15.4708 10.6509 15.1417 11.4451 14.5507 12.0361C13.9598 12.627 13.1656 12.9561 12.3297 12.9561C11.4939 12.9561 10.6997 12.627 10.1087 12.0361C9.54422 11.4716 9.2225 10.7288 9.19077 9.93186L11.3752 1.6439ZM24.8172 20.6682C25.1776 20.6682 25.4714 20.962 25.4714 21.3223V31.3866H28.8902C29.1708 31.3866 29.4361 31.2767 29.6344 31.0789C29.8314 30.8821 29.9383 30.6174 29.9383 30.3392L29.9381 14.9741C29.6463 15.018 29.3685 15.0449 29.0724 15.0449C27.6807 15.0449 26.3584 14.497 25.3742 13.5131C25.196 13.3348 25.041 13.1509 24.8869 12.9527C24.7324 13.1511 24.5779 13.3348 24.3997 13.5131C23.4155 14.4972 22.0936 15.0449 20.7015 15.0449C19.3099 15.0449 17.9875 14.497 17.0033 13.5131C16.8246 13.3346 16.6701 13.1509 16.5156 12.9524C16.3611 13.1509 16.2065 13.3346 16.0283 13.5128C15.0442 14.497 13.7222 15.0447 12.3302 15.0447C10.9385 15.0447 9.61615 14.497 8.63197 13.5128C8.45376 13.3346 8.29877 13.1507 8.14472 12.9524C7.99019 13.1509 7.83567 13.3346 7.65747 13.5128C6.67329 14.497 5.35134 15.0447 3.95928 15.0447C3.66334 15.0447 3.38557 15.018 3.09354 14.9739V30.3378C3.09354 30.6167 3.20483 30.8809 3.40167 31.0778C3.5985 31.2746 3.86316 31.3859 4.14161 31.3859H18.602L18.6018 21.3222C18.6018 20.9619 18.8956 20.668 19.256 20.668L24.8172 20.6682ZM25.8943 9.54958L23.8108 1.6439H26.9496C27.4871 1.6439 27.9801 1.9428 28.2286 2.41943L32.2047 10.0452C32.1447 10.8047 31.8328 11.4964 31.293 12.0361C30.702 12.627 29.9078 12.9561 29.072 12.9561C27.6898 12.9561 26.4215 12.0564 25.9979 10.5605C25.929 10.3174 25.9293 10.0625 25.9286 9.80987C25.9284 9.72196 25.9167 9.63496 25.8944 9.54994L25.8943 9.54958ZM22.9221 12.0357C22.3311 12.6267 21.5369 12.9557 20.701 12.9557C19.8652 12.9557 19.071 12.6267 18.48 12.0357C17.8891 11.4448 17.56 10.6506 17.56 9.81472L17.5603 1.64355H21.6558L23.84 9.93186C23.8083 10.7284 23.4866 11.4712 22.9221 12.0357ZM7.13659 9.54958L9.22032 1.64331L6.08117 1.64349C5.54368 1.64352 5.05078 1.94241 4.80228 2.41902L0.826172 10.0449C0.886186 10.8044 1.19799 11.496 1.73789 12.0357C2.32884 12.6267 3.12306 12.9557 3.95889 12.9557C5.03904 12.9557 6.04967 12.4062 6.64195 11.4521C6.95072 10.9546 7.0827 10.3717 7.10031 9.78654C7.10272 9.70637 7.11621 9.62678 7.13659 9.54958ZM7.65695 21.3222C7.65695 20.9618 7.95082 20.668 8.31113 20.668H12.085C12.4453 20.668 12.7391 20.9619 12.7391 21.3222V25.096C12.7391 25.4563 12.4453 25.7502 12.085 25.7502H8.31113C7.95081 25.7502 7.65695 25.4563 7.65695 25.096L7.65695 21.3222Z" fill="url(#paint0_linear_209_3098)"/>
<defs>
<linearGradient id="paint0_linear_209_3098" x1="16.5154" y1="35.4118" x2="16.5154" y2="-3.3094" gradientUnits="userSpaceOnUse">
<stop stop-color="#54C94C"/>
<stop offset="1" stop-color="white"/>
</linearGradient>
</defs>
</svg>
