<svg width="29" height="28" viewBox="0 0 29 28" fill="none" xmlns="http://www.w3.org/2000/svg">
<g clip-path="url(#clip0_2125_597)">
<path d="M27.9249 0.00354239C22.4591 -0.0944576 16.2256 2.76271 12.2799 7.19488C8.50924 7.26604 4.83775 8.81188 2.13458 11.515C1.97708 11.6702 1.92108 11.9024 1.98991 12.1124C2.05991 12.3235 2.24191 12.4764 2.46125 12.5079L6.95758 13.1519L6.40225 13.7737C6.19575 14.0047 6.20625 14.3559 6.42558 14.5752L13.9237 22.0734C14.0369 22.1865 14.1862 22.2437 14.3367 22.2437C14.4756 22.2437 14.6144 22.1947 14.7252 22.0955L15.3471 21.5402L15.9911 26.0365C16.0226 26.2559 16.1952 26.4169 16.4041 26.4869C16.4577 26.5044 16.5137 26.5125 16.5709 26.5125C16.7366 26.5125 16.9057 26.4402 17.0224 26.3247C19.6882 23.6589 21.2341 19.9874 21.3052 16.2167C25.7421 12.2629 28.6226 6.03171 28.4954 0.572876C28.4872 0.262542 28.2364 0.0117091 27.9249 0.00354239ZM22.5489 10.0742C21.9807 10.6424 21.2341 10.927 20.4862 10.927C19.7384 10.927 18.9917 10.6424 18.4236 10.0742C17.2872 8.93671 17.2872 7.08638 18.4236 5.94888C19.5611 4.81138 21.4114 4.81138 22.5489 5.94888C23.6864 7.08638 23.6864 8.93788 22.5489 10.0742Z" fill="url(#paint0_linear_2125_597)"/>
<path d="M3.67709 19.7225C2.42876 20.9709 0.714924 26.6105 0.52359 27.2487C0.461757 27.454 0.518924 27.6769 0.669424 27.8285C0.781424 27.9405 0.92959 28 1.08242 28C1.13842 28 1.19442 27.9918 1.25042 27.9755C1.88859 27.7842 7.52826 26.0703 8.77659 24.822C10.1824 23.4162 10.1824 21.1284 8.77659 19.7225C7.36959 18.3167 5.08292 18.3178 3.67709 19.7225Z" fill="url(#paint1_linear_2125_597)"/>
</g>
<defs>
<linearGradient id="paint0_linear_2125_597" x1="28.4995" y1="-6.89155" x2="-3.85287" y2="22.7078" gradientUnits="userSpaceOnUse">
<stop stop-color="#EEEEFF"/>
<stop offset="1" stop-color="#8542FD"/>
</linearGradient>
<linearGradient id="paint1_linear_2125_597" x1="19.7272" y1="7.32282" x2="-2.6813" y2="28.8952" gradientUnits="userSpaceOnUse">
<stop stop-color="#EEEEFF"/>
<stop offset="1" stop-color="#8542FD"/>
</linearGradient>
<clipPath id="clip0_2125_597">
<rect width="28" height="28" fill="white" transform="translate(0.499023)"/>
</clipPath>
</defs>
</svg>
