<svg width="25" height="25" viewBox="0 0 25 25" fill="none" xmlns="http://www.w3.org/2000/svg">
<path d="M3.27728 9.66554C2.62688 9.93855 2.22318 10.4246 2.21708 11.1126C2.21288 11.5936 2.53748 12.2396 3.18788 12.5036C3.45578 12.6126 7.21728 13.1186 7.21728 13.1186C7.21728 13.1186 8.21288 16.2656 8.57168 17.3716C8.67558 17.6916 8.73478 17.8486 8.96278 18.0576C9.34958 18.4116 10.0035 18.3006 10.2863 18.0166C11.0345 17.2666 12.2171 16.1096 12.2171 16.1096L12.7148 16.5146C12.7148 16.5146 14.9249 18.2776 16.133 19.1076C16.8443 19.5966 17.338 20.1066 18.1386 20.1096C18.5464 20.1116 19.2005 19.9086 19.6329 19.4136C19.9186 19.0866 20.1019 18.5636 20.1728 18.0946C20.334 17.0296 22.2251 5.51355 22.2171 5.11055C22.2043 4.46755 21.6634 4.10555 21.2138 4.10955C20.9314 4.11255 20.6987 4.19455 20.1809 4.35255C16.1755 5.57555 3.54258 9.55454 3.27728 9.66554ZM18.2171 7.10954C18.2171 7.10954 12.9391 11.7036 10.83 13.8176C10.1543 14.4946 10.1066 15.6566 10.1066 15.6566L9.01638 12.1686L18.2171 7.10954Z" fill="url(#paint0_linear_2025_2048)"/>
<defs>
<linearGradient id="paint0_linear_2025_2048" x1="19.4381" y1="-4.08174" x2="7.9001" y2="20.1096" gradientUnits="userSpaceOnUse">
<stop stop-color="white"/>
<stop offset="1" stop-color="#FA5154"/>
</linearGradient>
</defs>
</svg>
