<svg width="30" height="34" viewBox="0 0 30 34" fill="none" xmlns="http://www.w3.org/2000/svg">
<path d="M13.9251 1.5712C14.1627 1.5712 14.2815 1.69001 14.5191 1.80881C13.0934 2.40284 11.6678 3.94732 10.9549 7.27388L8.34119 7.98672C9.17283 5.6106 10.8361 1.5712 13.9251 1.5712ZM15.2319 2.75926C15.4695 3.47209 15.7071 4.30373 15.7071 5.6106C15.7071 5.7294 15.7071 5.7294 15.7071 5.84821L12.2618 6.79866C12.9746 4.30373 14.1627 3.23448 15.2319 2.75926ZM18.3209 4.89776L16.7764 5.37299C16.7764 5.25418 16.7764 5.13538 16.7764 5.01657C16.7764 3.94732 16.6576 3.11568 16.42 2.40284C17.2516 2.64045 17.9645 3.70971 18.3209 4.89776ZM26.0433 6.79866C26.0433 6.67985 25.9245 6.56105 25.8056 6.56105C25.568 6.56105 23.0731 6.32343 23.0731 6.32343C23.0731 6.32343 21.291 4.54135 21.0534 4.42254C20.8158 4.18493 20.4594 4.30373 20.3406 4.30373C20.3406 4.30373 19.9842 4.42254 19.3901 4.66015C18.7961 2.99687 17.7268 1.45239 15.9448 1.45239H15.826C15.3507 0.739559 14.6379 0.501948 14.0439 0.501948C9.76686 0.383142 7.74716 5.7294 7.03432 8.46194C6.08387 8.69955 5.13343 9.05597 4.06418 9.41239C3.11373 9.65 3.11373 9.7688 2.99492 10.6004C2.87612 11.1945 0.5 29.9658 0.5 29.9658L19.3901 33.53L29.6074 31.2727C29.6074 31.2727 26.0433 7.03627 26.0433 6.79866Z" fill="url(#paint0_linear_209_3661)"/>
<path d="M25.6868 6.56102C25.568 6.56102 23.0731 6.32341 23.0731 6.32341C23.0731 6.32341 21.291 4.54132 21.0534 4.42252C20.9346 4.30371 20.9346 4.30371 20.8158 4.30371L19.3901 33.53L29.6074 31.2726C29.6074 31.2726 26.0433 7.03625 26.0433 6.79863C26.0433 6.67983 25.8057 6.56102 25.6868 6.56102Z" fill="url(#paint1_linear_209_3661)"/>
<path d="M15.9447 12.2635L14.6378 16.0653C14.6378 16.0653 13.5686 15.4713 12.1429 15.4713C10.1232 15.4713 10.0044 16.6593 10.0044 17.0157C10.0044 18.679 14.519 19.3919 14.519 23.4313C14.519 26.639 12.4993 28.6587 9.76679 28.6587C6.55903 28.6587 4.89575 26.639 4.89575 26.639L5.72739 23.7877C5.72739 23.7877 7.39067 25.2134 8.81634 25.2134C9.76679 25.2134 10.1232 24.5005 10.1232 23.9065C10.1232 21.6492 6.44023 21.5304 6.44023 17.8474C6.44023 14.7584 8.69754 11.7883 13.0934 11.7883C15.1131 11.6695 15.9447 12.2635 15.9447 12.2635Z" fill="#FFFFFE"/>
<defs>
<linearGradient id="paint0_linear_209_3661" x1="15.0537" y1="0.5" x2="15.0537" y2="33.53" gradientUnits="userSpaceOnUse">
<stop stop-color="#00B59C"/>
<stop offset="1" stop-color="#9CFFAC"/>
</linearGradient>
<linearGradient id="paint1_linear_209_3661" x1="24.4988" y1="4.30371" x2="24.4988" y2="45.9862" gradientUnits="userSpaceOnUse">
<stop stop-color="#00B59C"/>
<stop offset="1" stop-color="#9CFFAC"/>
</linearGradient>
</defs>
</svg>
