<svg width="36" height="41" viewBox="0 0 36 41" fill="none" xmlns="http://www.w3.org/2000/svg">
<g clip-path="url(#clip0_209_2965)">
<path d="M30.7041 8.38602C30.6765 8.18602 30.5013 8.07534 30.3565 8.06315C29.2889 7.98292 28.2211 7.90333 27.1534 7.82438C27.1534 7.82438 25.0291 5.71547 24.796 5.48205C24.5627 5.24876 24.1071 5.31972 23.9302 5.37178C23.9042 5.37945 23.4661 5.51465 22.7415 5.7389C22.0319 3.69698 20.7795 1.82054 18.5764 1.82054C18.5156 1.82054 18.453 1.82301 18.3904 1.82657C17.7638 0.997939 16.9876 0.637939 16.3172 0.637939C11.185 0.637939 8.73311 7.05369 7.96434 10.314C5.97009 10.9319 4.55338 11.3712 4.37242 11.4281C3.25927 11.7773 3.22407 11.8123 3.0779 12.8612C2.9679 13.6553 0.0552979 36.1799 0.0552979 36.1799L22.7509 40.4322L35.0482 37.7719C35.0482 37.7719 30.7312 8.58602 30.7041 8.38602ZM21.4871 6.12684L19.5667 6.72123C19.5674 6.58588 19.568 6.45273 19.568 6.30712C19.568 5.03808 19.3919 4.0163 19.1093 3.2063C20.2445 3.34876 21.0005 4.64041 21.4871 6.12684ZM17.7011 3.45794C18.0167 4.24876 18.2219 5.38369 18.2219 6.9152C18.2219 6.99356 18.2212 7.0652 18.2205 7.13767C16.9716 7.52452 15.6145 7.94451 14.2543 8.36588C15.018 5.41849 16.4495 3.99493 17.7011 3.45794ZM16.1763 2.01451C16.3978 2.01451 16.6209 2.08972 16.8345 2.23671C15.1897 3.01068 13.4267 4.95999 12.6821 8.85273L9.54708 9.82369C10.4191 6.85451 12.49 2.01451 16.1763 2.01451Z" fill="#95BF46"/>
<path d="M30.3551 8.06319C29.2875 7.98296 28.2197 7.90337 27.152 7.82442C27.152 7.82442 25.0277 5.71552 24.7946 5.48209C24.7073 5.39524 24.5897 5.35072 24.4666 5.33154L22.7506 40.432L35.0468 37.772C35.0468 37.772 30.7298 8.58606 30.7027 8.38606C30.6751 8.18606 30.4999 8.07538 30.3551 8.06319Z" fill="#5E8E3E"/>
<path d="M18.576 14.8579L17.0597 19.3683C17.0597 19.3683 15.7313 18.6593 14.1028 18.6593C11.7154 18.6593 11.5952 20.1575 11.5952 20.535C11.5952 22.595 16.9651 23.3844 16.9651 28.2096C16.9651 32.0059 14.5573 34.4504 11.3107 34.4504C7.41481 34.4504 5.42249 32.0257 5.42249 32.0257L6.46564 28.5792C6.46564 28.5792 8.51358 30.3374 10.2417 30.3374C11.3708 30.3374 11.8302 29.4483 11.8302 28.7987C11.8302 26.1116 7.42468 25.9918 7.42468 21.5763C7.42468 17.86 10.0921 14.2637 15.4765 14.2637C17.5511 14.2637 18.576 14.8579 18.576 14.8579Z" fill="white"/>
</g>
<defs>
<clipPath id="clip0_209_2965">
<rect width="35.0685" height="40" fill="white" transform="translate(0.0494385 0.53125)"/>
</clipPath>
</defs>
</svg>
