<svg width="34" height="34" viewBox="0 0 34 34" fill="none" xmlns="http://www.w3.org/2000/svg">
<path d="M20.5158 5.53163C20.1184 5.29423 19.7262 5.08785 19.3547 4.90205C17.8608 5.56725 16.4964 6.49142 15.3245 7.63188C12.5545 10.4908 10.361 13.8564 8.86378 17.5448C8.50243 18.3813 8.17165 19.2269 7.85751 20.094C7.81449 20.1991 7.80684 20.3154 7.8357 20.4252C7.86456 20.535 7.92837 20.6325 8.0175 20.7029C9.41322 21.3501 11.6748 22.5329 12.7753 25.3369C12.7982 25.4018 12.8339 25.4615 12.8803 25.5125C12.9267 25.5634 12.9828 25.6045 13.0453 25.6333C13.1079 25.6622 13.1756 25.6782 13.2444 25.6805C13.3132 25.6828 13.3818 25.6712 13.4461 25.6465C19.3376 23.405 25.7212 20.1475 28.5401 14.3146C26.7837 10.6639 23.9934 7.60975 20.5158 5.53163ZM23.9887 12.5393C23.8101 13.4694 23.3567 14.3246 22.687 14.9943C22.0173 15.664 21.1621 16.1175 20.232 16.296C19.8168 16.3877 19.3852 16.3732 18.9771 16.2538C18.5689 16.1345 18.1975 15.9141 17.8971 15.6132C17.5967 15.3123 17.3771 14.9405 17.2584 14.5322C17.1398 14.1239 17.126 13.6922 17.2184 13.2772C17.3971 12.3477 17.8507 11.4932 18.5205 10.8244C19.1902 10.1555 20.0453 9.70313 20.975 9.52571C21.3902 9.43087 21.8226 9.44295 22.2319 9.5608C22.6411 9.67865 23.0137 9.89843 23.3148 10.1996C23.6159 10.5007 23.8357 10.8733 23.9536 11.2825C24.0714 11.6917 24.0835 12.1241 23.9887 12.5393ZM2.84172 19.0413L6.17011 12.3071C6.47138 11.6251 7.02892 11.0891 7.72223 10.8148C8.41554 10.5406 9.18893 10.5502 9.87521 10.8416L10.9898 11.3628C9.78872 13.1859 8.7608 15.1174 7.91946 17.132C7.64898 17.748 7.41493 18.3491 7.17638 18.9639L3.4145 19.7741C3.37694 19.7801 3.33901 19.7835 3.30099 19.7844C3.21404 19.7829 3.12886 19.7596 3.05327 19.7166C2.97769 19.6736 2.91412 19.6123 2.8684 19.5383C2.82268 19.4643 2.79627 19.38 2.79161 19.2932C2.78695 19.2064 2.80418 19.1198 2.84172 19.0413ZM22.6624 23.6237C22.96 24.3155 22.9705 25.0972 22.6918 25.7968C22.4132 26.4964 21.868 27.0568 21.1763 27.3545L14.4679 30.6726C14.3802 30.7138 14.2828 30.7298 14.1865 30.7188C14.0902 30.7078 13.9989 30.6702 13.9229 30.6101C13.8468 30.5501 13.7889 30.4701 13.7558 30.3791C13.7226 30.288 13.7154 30.1896 13.7351 30.0947L14.5659 26.3277C17.2253 25.3419 19.769 24.0683 22.1516 22.5297L22.6624 23.6237ZM30.9499 3.08048C30.8879 6.49567 30.253 9.87622 29.0715 13.0812C28.8548 12.6735 28.6277 12.2813 28.3955 11.9046C26.7293 9.1507 24.456 6.81385 21.7491 5.07235C21.3517 4.8195 20.9595 4.58728 20.5828 4.38086C23.7439 3.23647 27.0725 2.62272 30.4338 2.56445C30.5706 2.56485 30.7016 2.61935 30.7983 2.71603C30.895 2.81272 30.9495 2.94374 30.9499 3.08048ZM22.9669 12.3793C22.8166 13.0904 22.463 13.7425 21.949 14.2564C21.4351 14.7703 20.783 15.1239 20.072 15.2743C19.8176 15.3449 19.549 15.3467 19.2937 15.2794C19.0384 15.212 18.8056 15.078 18.6192 14.8911C18.4327 14.7041 18.2994 14.4709 18.2328 14.2155C18.1661 13.96 18.1687 13.6914 18.2401 13.4372C18.479 11.9683 19.9793 10.524 21.4962 10.5165C21.7276 10.5071 21.9579 10.5526 22.1682 10.6493C22.3786 10.746 22.5631 10.8912 22.7065 11.0729C22.85 11.2547 22.9484 11.4678 22.9937 11.6949C23.0389 11.9219 23.0297 12.1565 22.9669 12.3793ZM9.87521 27.6952C8.9257 28.6446 3.43516 31.1371 2.81595 31.4157C2.72044 31.4573 2.61465 31.4692 2.51227 31.45C2.40989 31.4308 2.31563 31.3813 2.2417 31.3079C2.16776 31.2346 2.11755 31.1407 2.09756 31.0385C2.07757 30.9362 2.08873 30.8304 2.12959 30.7345C2.4134 30.1102 4.90067 24.6196 5.85018 23.6701C6.11416 23.4056 6.42791 23.196 6.77333 23.0534C7.11875 22.9108 7.48899 22.838 7.86268 22.8393C10.342 22.7751 11.6728 25.9916 9.87521 27.6952Z" fill="url(#paint0_linear_209_3258)"/>
<defs>
<linearGradient id="paint0_linear_209_3258" x1="16.5188" y1="35.3693" x2="16.5188" y2="-2.24692" gradientUnits="userSpaceOnUse">
<stop stop-color="#8542FD"/>
<stop offset="1" stop-color="#EEEEFF"/>
</linearGradient>
</defs>
</svg>
