<svg width="34" height="34" viewBox="0 0 34 34" fill="none" xmlns="http://www.w3.org/2000/svg">
<path d="M17.9945 1.57435L1.57483 17.9941C0.576618 18.9923 0.576618 20.6107 1.57483 21.6089L11.4214 31.4555C12.4197 32.4537 14.0381 32.4537 15.0363 31.4555L31.456 15.0358C31.9354 14.5565 32.2047 13.9063 32.2047 13.2284V3.38178C32.2047 1.97009 31.0603 0.825684 29.6486 0.825684H19.802C19.1241 0.825684 18.4739 1.09499 17.9945 1.57435ZM25.8794 9.74593L23.9332 11.6922C23.1222 12.5031 21.9869 12.5031 21.176 11.6922C20.3651 10.8812 20.3651 9.74593 21.176 8.935L23.1222 6.98876C23.9332 6.17783 25.0685 6.17783 25.8794 6.98876C26.6903 7.7997 26.6903 9.09719 25.8794 9.74593Z" fill="url(#paint0_linear_209_3144)"/>
<defs>
<linearGradient id="paint0_linear_209_3144" x1="16.5154" y1="36.4507" x2="16.5154" y2="-4.39932" gradientUnits="userSpaceOnUse">
<stop stop-color="#FA516A"/>
<stop offset="1" stop-color="white"/>
</linearGradient>
</defs>
</svg>
