<svg width="22" height="22" viewBox="0 0 22 22" fill="none" xmlns="http://www.w3.org/2000/svg">
<g clip-path="url(#clip0_2025_2032)">
<path d="M19.2229 2.78734C18.9925 2.51793 18.5859 2.48712 18.314 2.71812C16.3703 4.38797 14.4002 5.19931 12.2891 5.19931C8.72782 5.19931 5.32138 3.39539 3.60809 2.32032C3.30976 2.13087 2.90942 2.22213 2.71933 2.5236C2.53052 2.82511 2.62114 3.22292 2.92325 3.41172C4.75364 4.56105 8.40555 6.48837 12.2891 6.48837C14.7212 6.48837 16.967 5.57507 19.1549 3.69626C19.4243 3.46397 19.4557 3.05736 19.2229 2.78734Z" fill="url(#paint0_linear_2025_2032)"/>
<path d="M0.644531 3.91025H3.26562C3.62188 3.91025 3.91016 3.62197 3.91016 3.26572V0.644623C3.91016 0.288369 3.62188 9.15527e-05 3.26562 9.15527e-05H0.644531C0.288277 9.15527e-05 0 0.288369 0 0.644623V3.26572C0 3.62197 0.288277 3.91025 0.644531 3.91025ZM21.3555 9.15527e-05H18.7344C18.3781 9.15527e-05 18.0898 0.288369 18.0898 0.644623V3.26572C18.0898 3.62197 18.3781 3.91025 18.7344 3.91025H21.3555C21.7117 3.91025 22 3.62197 22 3.26572V0.644623C22 0.288369 21.7117 9.15527e-05 21.3555 9.15527e-05ZM13.8991 5.2849C13.6826 5.1609 13.4132 5.17288 13.208 5.31576L0.274441 14.3392C0.0440859 14.5003 -0.0540977 14.793 0.030207 15.0612C0.114512 15.3293 0.363816 15.5118 0.644531 15.5118H8.05681L11.7364 21.6873C11.8775 21.9221 12.1557 22.0476 12.4351 21.9831C12.7083 21.9202 12.9085 21.6879 12.9311 21.4091L14.2202 5.89738C14.2415 5.64808 14.1157 5.40956 13.8991 5.2849Z" fill="url(#paint1_linear_2025_2032)"/>
</g>
<defs>
<linearGradient id="paint0_linear_2025_2032" x1="11" y1="6.48837" x2="11" y2="2.22153" gradientUnits="userSpaceOnUse">
<stop stop-color="#ADDCFF"/>
<stop offset="0.5028" stop-color="#EAF6FF"/>
<stop offset="1" stop-color="#EAF6FF"/>
</linearGradient>
<linearGradient id="paint1_linear_2025_2032" x1="11" y1="21.9999" x2="11" y2="9.15527e-05" gradientUnits="userSpaceOnUse">
<stop stop-color="#5558FF"/>
<stop offset="1" stop-color="#00C0FF"/>
</linearGradient>
<clipPath id="clip0_2025_2032">
<rect width="22" height="22" fill="white"/>
</clipPath>
</defs>
</svg>
