<svg width="33" height="32" viewBox="0 0 33 32" fill="none" xmlns="http://www.w3.org/2000/svg">
<g clip-path="url(#clip0_209_2899)">
<path d="M10.5486 18.7619C11.2546 20.2553 12.2929 21.4998 13.6634 22.3294C16.8612 24.2377 21.1388 23.5324 24.9596 20.8775L29.3202 25.3992L30.7322 26.8511C27.4514 29.7549 22.8831 31.5387 17.8579 31.5387C17.5672 31.5387 17.318 31.5387 17.0273 31.5387C12.7913 31.3728 8.59672 30.2942 5.9388 27.6393C3.90382 25.6066 2.74098 23.7399 2.74098 21.2094V21.1679C2.74098 20.919 2.74098 20.6701 2.74098 20.4212C2.94863 16.6462 5.73115 13.4935 9.46885 12.7468H9.51038C10.7978 12.4979 12.1268 12.3734 13.4557 12.3734H17.1104V15.2358L19.6437 13.2861L24.3781 9.7185L19.0208 5.65313L17.1104 4.20122V7.76878H8.63825C6.06339 7.76878 3.57158 8.93032 1.95191 10.963C1.16284 11.9586 0.498361 13.0372 0 14.1987C0.29071 11.8341 1.20437 9.67702 2.57486 7.76878C5.19126 4.11825 9.46885 1.5048 14.5355 0.675135C15.3661 0.550685 16.1967 0.467719 17.0273 0.426235C22.7169 0.675135 27.6175 3.66193 30.3585 8.01768C31.0229 9.05477 31.5628 10.1748 31.9366 11.3778C32.0197 11.5852 32.0612 11.7927 32.1443 12.0001C32.518 13.2861 32.6841 14.6135 32.6841 15.9825C32.6841 16.9366 32.6011 17.8907 32.435 18.8033H10.5486V18.7619Z" fill="white"/>
</g>
<defs>
<clipPath id="clip0_209_2899">
<rect width="32.3038" height="31.1475" fill="white" transform="translate(0 0.426235)"/>
</clipPath>
</defs>
</svg>
