
<svg width="216" height="41" viewBox="0 0 216 41" fill="none" xmlns="http://www.w3.org/2000/svg">
<g clip-path="url(#clip0_2839_77)">
<path d="M60.2995 24.6216C60.2995 26.8216 59.6299 28.6231 58.2908 30.026C56.9516 31.4289 55.2777 32.1304 53.269 32.1304C48.3907 32.1304 45.9515 28.7666 45.9515 22.039V17.8781C45.9515 11.2461 48.3588 7.93013 53.1733 7.93013C55.3415 7.93013 57.0473 8.69536 58.2908 10.2258C59.6299 11.8519 60.2995 14.2273 60.2995 17.352V19.4085H51.4516V26.3433C51.4516 29.1811 52.0096 30.5999 53.1255 30.5999C54.2415 30.5999 54.7995 29.1811 54.7995 26.3433V22.8998H60.2995V24.6216ZM54.7995 17.6867V12.665C54.7995 11.8041 54.6719 11.0389 54.4168 10.3693C54.098 9.57218 53.6676 9.17362 53.1255 9.17362C52.5835 9.17362 52.1531 9.57218 51.8342 10.3693C51.5791 11.007 51.4516 11.7084 51.4516 12.4737V17.6867H54.7995Z" fill="url(#paint0_linear_2839_77)"/>
<path d="M75.6801 24.9564C75.6801 26.9013 74.9786 28.5912 73.5757 30.026C72.1728 31.4289 70.4829 32.1304 68.5061 32.1304C63.6278 32.1304 61.1886 28.6071 61.1886 21.5607V18.2128C61.1886 15.3114 61.6669 12.9838 62.6234 11.2302C63.8669 9.03014 65.78 7.93013 68.3626 7.93013C70.4032 7.93013 72.0612 8.47217 73.3366 9.55624C74.6438 10.6084 75.2975 12.0273 75.2975 13.8128V15.3432H70.1322V12.9997C70.1322 12.107 70.0047 11.2939 69.7496 10.5606C69.4307 9.63595 69.0003 9.17362 68.4583 9.17362C67.2785 9.17362 66.6887 10.4331 66.6887 12.9519V26.439C66.6887 29.1811 67.2626 30.5521 68.4104 30.5521C69.5902 30.5521 70.18 29.1492 70.18 26.3433V23.139H75.6801V24.9564Z" fill="url(#paint1_linear_2839_77)"/>
<path d="M91.4437 21.8955C91.4437 24.7332 90.8857 27.0607 89.7697 28.8782C88.4625 31.0463 86.5494 32.1304 84.0306 32.1304C81.5436 32.1304 79.6783 31.0622 78.4349 28.926C77.3827 27.1405 76.8566 24.8129 76.8566 21.9433V18.1172C76.8566 15.2795 77.4146 12.9519 78.5305 11.1345C79.8378 8.99826 81.7349 7.93013 84.2219 7.93013C86.5494 7.93013 88.3828 9.0142 89.7219 11.1823C90.8697 13.0954 91.4437 15.423 91.4437 18.165V21.8955ZM85.9436 23.4738V15.9172C85.9436 11.3896 85.3219 9.1258 84.0784 9.1258C82.9305 9.1258 82.3566 11.4055 82.3566 15.965V23.5216C82.3566 28.368 82.9465 30.7912 84.1262 30.7912C84.9552 30.7912 85.4972 29.9303 85.7523 28.2086C85.8798 27.2839 85.9436 25.7057 85.9436 23.4738Z" fill="url(#paint2_linear_2839_77)"/>
<path d="M114.573 31.6521H109.073V16.0606C109.073 12.7128 108.626 11.0389 107.734 11.0389C107.032 11.0389 106.49 11.4852 106.107 12.378C106.203 13.3345 106.251 14.5621 106.251 16.0606V31.6521H100.799V14.0998C100.799 12.1229 100.4 11.1345 99.603 11.1345C98.6784 11.1345 98.2161 12.107 98.2161 14.0519V31.6521H92.716V8.45623H97.8813V9.89102C99.1885 8.58376 100.416 7.93013 101.564 7.93013C103.445 7.93013 104.752 8.75913 105.486 10.4171L106.012 9.79537C107.064 8.55188 108.323 7.93013 109.79 7.93013C111.799 7.93013 113.17 8.85478 113.903 10.7041C114.35 11.8838 114.573 13.6693 114.573 16.0606V31.6521Z" fill="url(#paint3_linear_2839_77)"/>
<path d="M137.853 31.6521H132.352V16.0606C132.352 12.7128 131.906 11.0389 131.013 11.0389C130.312 11.0389 129.77 11.4852 129.387 12.378C129.483 13.3345 129.531 14.5621 129.531 16.0606V31.6521H124.078V14.0998C124.078 12.1229 123.68 11.1345 122.883 11.1345C121.958 11.1345 121.496 12.107 121.496 14.0519V31.6521H115.996V8.45623H121.161V9.89102C122.468 8.58376 123.696 7.93013 124.844 7.93013C126.725 7.93013 128.032 8.75913 128.765 10.4171L129.292 9.79537C130.344 8.55188 131.603 7.93013 133.07 7.93013C135.079 7.93013 136.45 8.85478 137.183 10.7041C137.629 11.8838 137.853 13.6693 137.853 16.0606V31.6521Z" fill="url(#paint4_linear_2839_77)"/>
<path d="M151.615 8.45623L144.537 40.5H141.858L144.25 31.6521L138.702 8.45623H144.202L146.737 20.8433L149.176 8.45623H151.615Z" fill="url(#paint5_linear_2839_77)"/>
<path d="M164.745 25.6738C164.745 27.555 164.123 29.1013 162.88 30.3129C161.668 31.5246 160.042 32.1304 158.002 32.1304C156.344 32.1304 154.941 31.5883 153.793 30.5043C152.645 29.3883 152.071 28.0332 152.071 26.439V23.6651H156.567V26.9173C156.567 29.4999 157.061 30.7912 158.049 30.7912C159.165 30.7912 159.723 29.4999 159.723 26.9173V25.339C159.723 23.394 158.592 22.0071 156.328 21.1781C153.522 20.1578 152.119 18.3723 152.119 15.8215V14.0519C152.119 12.2983 152.661 10.8476 153.745 9.69971C154.861 8.51999 156.28 7.93013 158.002 7.93013C159.532 7.93013 160.903 8.39246 162.115 9.3171C163.358 10.2417 163.98 11.4055 163.98 12.8084V14.5302H159.771V12.1867C159.771 10.3055 159.309 9.36493 158.384 9.36493C157.523 9.36493 157.093 10.3055 157.093 12.1867V14.0998C157.093 15.1201 157.667 15.949 158.815 16.5867C159.867 17.0969 160.903 17.607 161.923 18.1172C163.805 19.4563 164.745 21.2897 164.745 23.6172V25.6738Z" fill="url(#paint6_linear_2839_77)"/>
<path d="M176.394 26.5347C176.394 30.2651 174.8 32.1304 171.611 32.1304C170.113 32.1304 168.965 31.5883 168.168 30.5043C167.53 29.5796 167.211 28.3839 167.211 26.9173V10.2258H165.203V8.45623H167.211V1.85616H172.711V8.45623H176.011V10.2258H172.711V27.0129C172.711 28.8622 172.982 29.7869 173.524 29.7869C174.098 29.7869 174.385 28.8622 174.385 27.0129V26.5347H176.394Z" fill="url(#paint7_linear_2839_77)"/>
<path d="M190.813 24.6216C190.813 26.8216 190.144 28.6231 188.805 30.026C187.466 31.4289 185.792 32.1304 183.783 32.1304C178.905 32.1304 176.465 28.7666 176.465 22.039V17.8781C176.465 11.2461 178.873 7.93013 183.687 7.93013C185.855 7.93013 187.561 8.69536 188.805 10.2258C190.144 11.8519 190.813 14.2273 190.813 17.352V19.4085H181.965V26.3433C181.965 29.1811 182.523 30.5999 183.639 30.5999C184.755 30.5999 185.313 29.1811 185.313 26.3433V22.8998H190.813V24.6216ZM185.313 17.6867V12.665C185.313 11.8041 185.186 11.0389 184.931 10.3693C184.612 9.57218 184.181 9.17362 183.639 9.17362C183.097 9.17362 182.667 9.57218 182.348 10.3693C182.093 11.007 181.965 11.7084 181.965 12.4737V17.6867H185.313Z" fill="url(#paint8_linear_2839_77)"/>
<path d="M201.89 13.7171C200.646 13.7171 199.737 13.8766 199.163 14.1954C197.856 14.8969 197.203 16.523 197.203 19.0737V31.6521H191.703V8.45623H197.107V11.4693C197.458 10.0983 198.063 9.14174 198.924 8.5997C199.658 8.15332 200.646 7.93013 201.89 7.93013V13.7171Z" fill="url(#paint9_linear_2839_77)"/>
<path d="M215.497 8.45623L208.419 40.5H205.74L208.132 31.6521L202.584 8.45623H208.084L210.619 20.8433L213.058 8.45623H215.497Z" fill="url(#paint10_linear_2839_77)"/>
<path d="M36.9665 12.1916V16.6036C36.9665 16.9798 36.7665 17.3271 36.4403 17.5165L31.3048 20.4789H31.3022L25.6432 23.7465L25.6405 23.7491L21.2943 26.259C20.4814 26.7273 19.479 26.7273 18.6635 26.259L14.4488 23.8254C14.3672 23.778 14.3172 23.6912 14.3172 23.5965V17.6665C14.3172 17.4639 14.5382 17.3376 14.7119 17.4402L18.6635 19.7212C19.479 20.1895 20.4814 20.1895 21.2943 19.7212L25.6405 17.2114H25.6432L31.3022 13.9412C32.6361 12.731 33.6937 10.6052 31.2022 7.34556L31.3022 7.40344H31.3048L35.651 9.91067C36.4666 10.3816 36.9665 11.2498 36.9665 12.1916Z" fill="url(#paint11_linear_2839_77)"/>
<path d="M36.1772 30.742L31.3048 33.557H31.3022L25.6432 36.8246L25.6405 36.8272L21.2943 39.337C20.4814 39.8053 19.479 39.8053 18.6635 39.337L14.3172 36.8272H14.3146L11.4838 35.1908L8.65296 33.557L4.30675 31.0498C3.49381 30.5789 2.99131 29.7107 2.99131 28.7714V12.1916C2.99131 11.2498 3.49381 10.3816 4.30675 9.91066L8.65296 7.40344L14.3146 4.13325H14.3172L18.6635 1.62339C19.479 1.15247 20.4814 1.15247 21.2943 1.62339L25.6405 4.13325H25.6432L31.2022 7.34556C33.6937 10.6052 32.6361 12.731 31.3022 13.9412L25.6432 10.6736L25.6405 10.671L21.2943 8.16376C20.4814 7.69283 19.479 7.69283 18.6635 8.16376L14.3172 10.671H14.3146L9.9684 13.1808C9.15546 13.6518 8.65296 14.52 8.65296 15.4592V25.5013C8.65296 26.4405 9.15546 27.3087 9.9684 27.7796L14.3146 30.2868H14.3172L17.1454 31.9232L18.6635 32.7993C19.479 33.2676 20.4814 33.2676 21.2943 32.7967L25.6405 30.2868H25.6432L30.7786 27.3245C31.1049 27.135 31.5048 27.135 31.831 27.3245L36.1772 29.8317C36.5297 30.0343 36.5297 30.5394 36.1772 30.742Z" fill="url(#paint12_linear_2839_77)"/>
</g>
<defs>
<linearGradient id="paint0_linear_2839_77" x1="45.9515" y1="21.1781" x2="323.51" y2="21.1781" gradientUnits="userSpaceOnUse">
<stop stop-color="white"/>
<stop offset="1" stop-color="#999999"/>
</linearGradient>
<linearGradient id="paint1_linear_2839_77" x1="45.9515" y1="21.1781" x2="323.51" y2="21.1781" gradientUnits="userSpaceOnUse">
<stop stop-color="white"/>
<stop offset="1" stop-color="#999999"/>
</linearGradient>
<linearGradient id="paint2_linear_2839_77" x1="45.9515" y1="21.1781" x2="323.51" y2="21.1781" gradientUnits="userSpaceOnUse">
<stop stop-color="white"/>
<stop offset="1" stop-color="#999999"/>
</linearGradient>
<linearGradient id="paint3_linear_2839_77" x1="45.9515" y1="21.1781" x2="323.51" y2="21.1781" gradientUnits="userSpaceOnUse">
<stop stop-color="white"/>
<stop offset="1" stop-color="#999999"/>
</linearGradient>
<linearGradient id="paint4_linear_2839_77" x1="45.9515" y1="21.1781" x2="323.51" y2="21.1781" gradientUnits="userSpaceOnUse">
<stop stop-color="white"/>
<stop offset="1" stop-color="#999999"/>
</linearGradient>
<linearGradient id="paint5_linear_2839_77" x1="45.9515" y1="21.1781" x2="323.51" y2="21.1781" gradientUnits="userSpaceOnUse">
<stop stop-color="white"/>
<stop offset="1" stop-color="#999999"/>
</linearGradient>
<linearGradient id="paint6_linear_2839_77" x1="45.9515" y1="21.1781" x2="323.51" y2="21.1781" gradientUnits="userSpaceOnUse">
<stop stop-color="white"/>
<stop offset="1" stop-color="#999999"/>
</linearGradient>
<linearGradient id="paint7_linear_2839_77" x1="45.9515" y1="21.1781" x2="323.51" y2="21.1781" gradientUnits="userSpaceOnUse">
<stop stop-color="white"/>
<stop offset="1" stop-color="#999999"/>
</linearGradient>
<linearGradient id="paint8_linear_2839_77" x1="45.9515" y1="21.1781" x2="323.51" y2="21.1781" gradientUnits="userSpaceOnUse">
<stop stop-color="white"/>
<stop offset="1" stop-color="#999999"/>
</linearGradient>
<linearGradient id="paint9_linear_2839_77" x1="45.9515" y1="21.1781" x2="323.51" y2="21.1781" gradientUnits="userSpaceOnUse">
<stop stop-color="white"/>
<stop offset="1" stop-color="#999999"/>
</linearGradient>
<linearGradient id="paint10_linear_2839_77" x1="45.9515" y1="21.1781" x2="323.51" y2="21.1781" gradientUnits="userSpaceOnUse">
<stop stop-color="white"/>
<stop offset="1" stop-color="#999999"/>
</linearGradient>
<linearGradient id="paint11_linear_2839_77" x1="8.87979" y1="17.0151" x2="38.8271" y2="16.7804" gradientUnits="userSpaceOnUse">
<stop stop-color="#226FFF"/>
<stop offset="0.5" stop-color="#DE22FF"/>
<stop offset="1" stop-color="#FFE11B"/>
</linearGradient>
<linearGradient id="paint12_linear_2839_77" x1="-5.03918" y1="20.5534" x2="39.1908" y2="20.2967" gradientUnits="userSpaceOnUse">
<stop stop-color="#226FFF"/>
<stop offset="0.5" stop-color="#DE22FF"/>
<stop offset="1" stop-color="#FFE11B"/>
</linearGradient>
<clipPath id="clip0_2839_77">
<rect width="215.497" height="40" fill="white" transform="translate(0 0.500011)"/>
</clipPath>
</defs>
</svg>
