<svg width="98" height="50" viewBox="0 0 98 50" fill="none" xmlns="http://www.w3.org/2000/svg">
<g id="6582ad225777e22718f0ea1a_i15">
<g id="Clip path group">
<mask id="mask0_2002_1582" style="mask-type:luminance" maskUnits="userSpaceOnUse" x="0" y="0" width="97" height="50">
<g id="clip0_2920_6489">
<path id="Vector" d="M96.3294 0H0.650391V50H96.3294V0Z" fill="white"/>
</g>
</mask>
<g mask="url(#mask0_2002_1582)">
<g id="Group">
<path id="Vector_2" d="M9.60997 16.4215C13.2702 16.4215 17.484 19.0765 17.484 24.4163C17.484 29.9651 13.2702 32.5008 9.60997 32.5008C7.14934 32.5008 5.70371 31.1883 5.48841 30.6512V32.2026H0.628662V16.6899V11.1113H5.48841V18.1219C5.70371 17.7937 7.14934 16.4215 9.60997 16.4215ZM8.90253 28.3542C10.9941 28.3542 12.778 26.9819 12.778 24.4163C12.778 21.9404 10.9941 20.568 8.90253 20.568C6.90327 20.568 5.2731 21.9105 5.2731 24.4163C5.2731 27.0117 6.90327 28.3542 8.90253 28.3542ZM24.9889 11.1113V15.079H20.1292V11.1113H24.9889ZM24.9889 16.6899V32.2026H20.1292V16.6899H24.9889ZM35.9079 28.2647C36.7692 28.2647 37.3843 28.1454 38.061 27.9663V31.8744C37.3843 32.1727 36.2771 32.3815 34.647 32.3815C31.971 32.3815 29.7256 31.5163 29.7256 26.7433V20.568H27.4803V16.6899H29.7256V13.0504H34.5854V16.6899H37.9995V20.568H34.5854V26.7433C34.5854 27.4294 34.7699 28.2647 35.9079 28.2647ZM49.626 16.4215C53.2861 16.4215 57.5 19.0765 57.5 24.4163C57.5 29.9651 53.2861 32.5008 49.626 32.5008C47.1653 32.5008 45.7197 31.1883 45.5045 30.6512V32.2026H40.6447V16.6899V11.1113H45.5045V18.1219C45.7197 17.7937 47.1653 16.4215 49.626 16.4215ZM48.9185 28.3542C51.0102 28.3542 52.794 26.9819 52.794 24.4163C52.794 21.9404 51.0102 20.568 48.9185 20.568C46.9193 20.568 45.2892 21.9105 45.2892 24.4163C45.2892 27.0117 46.9193 28.3542 48.9185 28.3542ZM71.8947 16.6302H76.7238L66.9426 37.8706H62.0829L65.0357 31.6655L58.1152 16.6302H62.9442L67.4349 26.5941L71.8947 16.6302ZM86.9968 16.4215C90.6263 16.4215 95.7013 19.0765 94.6863 26.087H83.5211C84.0749 27.6979 85.5204 28.5331 87.4582 28.5331C89.4267 28.5331 90.0418 28.1155 91.1492 27.668L93.8252 30.174C92.4103 31.5163 90.5032 32.5008 87.2736 32.5008C83.3058 32.5008 78.5692 29.8458 78.5692 24.5059C78.5692 19.0765 83.3674 16.4215 86.9968 16.4215ZM86.9968 20.4487C85.6128 20.4487 84.1979 21.2244 83.5826 22.7756H90.3802C89.8881 21.2244 88.381 20.4487 86.9968 20.4487Z" fill="black"/>
</g>
</g>
</g>
</g>
</svg>
