<svg width="103" height="50" viewBox="0 0 103 50" fill="none" xmlns="http://www.w3.org/2000/svg">
<g id="6582ad2b1d1e1d13b584cdee_i21" clip-path="url(#clip0_2002_1533)">
<g id="Clip path group">
<mask id="mask0_2002_1533" style="mask-type:luminance" maskUnits="userSpaceOnUse" x="0" y="0" width="103" height="50">
<g id="clip0_2930_7095">
<path id="Vector" d="M102.307 0H0.455078V50H102.307V0Z" fill="white"/>
</g>
</mask>
<g mask="url(#mask0_2002_1533)">
<g id="Group">
<path id="Vector_2" d="M16.5499 37.5338C13.7467 37.5338 11.2306 35.8224 10.2106 33.2224L8.88944 29.8586C8.75394 29.553 8.60997 29.3554 8.45754 29.2634C8.30416 29.1716 8.05574 29.1256 7.71229 29.1256H7.12418L6.77602 31.9694C6.38645 35.1458 3.67927 37.5338 0.466797 37.5338L3.16456 15.6749C3.55601 12.4986 6.26506 10.1113 9.47849 10.1113L7.58431 25.4806H7.97011C8.28911 25.4806 8.54598 25.4319 8.74265 25.3344C8.93837 25.2369 9.13504 25.0598 9.33076 24.803L12.0944 21.0315C13.2273 19.4859 15.0284 18.5673 16.9488 18.557L20.181 18.5383L14.8477 25.2979C14.602 25.6156 14.333 25.8967 14.0384 26.1405C13.7439 26.3851 13.4372 26.5988 13.1191 26.7816C13.3769 26.9897 13.6 27.2305 13.79 27.5051C13.9801 27.7798 14.1485 28.0947 14.2954 28.449L18.1204 37.5348L16.5499 37.5338Z" fill="#0A1A2F"/>
<path id="Vector_3" d="M20.1387 37.5338L22.8063 15.6759C23.1939 12.4995 25.9012 10.1113 29.1137 10.1113L26.446 31.9694C26.0574 35.1458 23.3512 37.5338 20.1387 37.5338Z" fill="#0A1A2F"/>
<path id="Vector_4" d="M52.2487 33.295C52.5065 33.4665 52.8123 33.6249 53.168 33.7711C53.5237 33.9174 53.9894 33.9914 54.5653 33.9914C55.3745 33.9914 55.9749 33.8114 56.3673 33.4506C56.7597 33.0907 56.9553 32.6661 56.9553 32.1778C56.9553 31.799 56.8537 31.4879 56.6515 31.2434C56.4491 30.9986 56.1828 30.7888 55.8516 30.6115C55.5203 30.4345 55.1469 30.276 54.7299 30.1354C54.3131 29.9959 53.884 29.8393 53.4427 29.6686C53.0015 29.4981 52.5723 29.2995 52.1555 29.0735C51.7385 28.8477 51.3651 28.5636 51.0338 28.2215C50.7026 27.8795 50.4363 27.4586 50.234 26.9572C50.0317 26.4567 49.9301 25.8521 49.9301 25.1436C49.9301 24.2645 50.0928 23.4096 50.4174 22.5792C50.7421 21.7488 51.2267 21.0131 51.8703 20.372C52.514 19.7309 53.3138 19.2153 54.2698 18.8245C55.2259 18.4336 56.3419 18.2388 57.6169 18.2388C58.8919 18.2388 60.0285 18.4581 61.0288 18.8985C62.0281 19.3381 62.8524 19.8761 63.5027 20.5107L62.3349 21.9906C61.6517 22.8567 60.4463 23.1163 59.4659 22.6082C59.1902 22.4677 58.8777 22.3431 58.5277 22.2324C58.1787 22.1228 57.7769 22.0675 57.3233 22.0675C56.4773 22.0675 55.8733 22.2296 55.5119 22.5529C55.1496 22.8772 54.969 23.2953 54.969 23.8079C54.969 24.1379 55.0696 24.419 55.272 24.6506C55.4742 24.8829 55.7406 25.0902 56.0717 25.2739C56.403 25.4565 56.7803 25.6253 57.2028 25.7771C57.6253 25.9299 58.0581 26.1014 58.4995 26.2899C58.9408 26.4792 59.3727 26.6957 59.7962 26.9403C60.2187 27.1849 60.596 27.4839 60.9272 27.8382C61.2584 28.1925 61.5248 28.6143 61.727 29.1025C61.9294 29.5909 62.0301 30.1711 62.0301 30.8431C62.0301 31.7953 61.8399 32.6961 61.4598 33.5452C61.0796 34.3943 60.5338 35.1329 59.8234 35.7618C59.112 36.3907 58.251 36.8913 57.2395 37.2643C56.228 37.6364 55.0913 37.8229 53.8285 37.8229C53.2565 37.8229 52.6852 37.7685 52.1244 37.6561C51.5062 37.5324 50.9246 37.3627 50.3798 37.1453C49.8585 36.9372 49.3834 36.6907 48.9542 36.4029C48.5252 36.1161 48.176 35.8078 47.906 35.4779L48.9759 33.9127C49.7099 32.8404 51.1749 32.5649 52.2487 33.295Z" fill="#0A1A2F"/>
<path id="Vector_5" d="M63.6934 37.5338L66.3525 15.749C66.7449 12.5304 69.4868 10.1113 72.7417 10.1113L71.3989 21.0295C72.2693 20.0773 73.1886 19.3752 74.1579 18.9226C75.1261 18.4708 76.1254 18.2449 77.1559 18.2449C77.8663 18.2449 78.5259 18.3733 79.1328 18.6292C79.7397 18.8861 80.2572 19.2609 80.6863 19.7558C81.1154 20.2506 81.4522 20.858 81.6979 21.5788C81.9435 22.2995 82.0659 23.1299 82.0659 24.0701C82.0659 24.2904 82.0564 24.5162 82.0385 24.7477C82.0206 24.9801 81.9991 25.2181 81.9745 25.4619L80.5404 37.5338H74.8392L76.2732 25.4619C76.2977 25.2669 76.3164 25.0861 76.3286 24.922C76.341 24.757 76.3475 24.6015 76.3475 24.4552C76.3475 23.7954 76.2309 23.338 75.9984 23.0812C75.765 22.8244 75.416 22.6969 74.9502 22.6969C74.57 22.6969 74.171 22.8104 73.7552 23.0362C73.3382 23.2622 72.9365 23.5827 72.5507 23.9979C72.1649 24.4131 71.8027 24.9135 71.4657 25.5004C71.1279 26.086 70.8495 26.7404 70.6292 27.4601L70.0863 31.8981C69.6902 35.1148 66.9472 37.5338 63.6934 37.5338Z" fill="#0A1A2F"/>
<path id="Vector_6" d="M99.7859 37.5286H96.7332C96.3775 37.5286 96.0803 37.4827 95.8413 37.3909C95.6023 37.299 95.4121 37.1743 95.271 37.015C95.1299 36.8565 95.032 36.6672 94.9766 36.447C94.921 36.2267 94.8937 35.9886 94.8937 35.7328V34.3775C94.1089 35.4525 93.2385 36.2952 92.2825 36.9053C91.3264 37.5164 90.2717 37.821 89.1189 37.821C88.432 37.821 87.7706 37.6832 87.1325 37.4086C86.4946 37.134 85.9309 36.7188 85.4407 36.1631C84.9505 35.6072 84.5581 34.8986 84.2635 34.0382C83.9691 33.1768 83.8223 32.1609 83.8223 30.9884C83.8223 29.2665 84.1374 27.6329 84.7698 26.0884C85.4012 24.5438 86.2838 23.1913 87.4177 22.0309C88.5516 20.8706 89.8971 19.9492 91.4545 19.265C93.0109 18.5809 94.7214 18.2388 96.5856 18.2388C97.4927 18.2388 98.412 18.2996 99.3445 18.4215C100.276 18.5434 101.195 18.7636 102.103 19.0813L99.7859 37.5286ZM91.3999 33.3334C91.8167 33.3334 92.2213 33.1778 92.6138 32.8667C93.0062 32.5554 93.3768 32.1309 93.726 31.5938C94.075 31.0568 94.3968 30.4279 94.6914 29.7071C94.6942 29.6996 94.697 29.6931 94.6999 29.6856C95.1638 28.5459 95.4527 27.3434 95.606 26.1231L96.1075 22.1424H95.7763C94.8448 22.1424 93.995 22.3506 93.2291 22.7657C92.4631 23.181 91.8035 23.7461 91.2521 24.4603C90.7007 25.1745 90.2745 26.0049 89.9743 26.9515C89.6741 27.8982 89.5235 28.9086 89.5235 29.9836C89.5235 30.5947 89.5725 31.1131 89.6703 31.5404C89.7682 31.9678 89.8999 32.3127 90.0656 32.5752C90.2312 32.8375 90.4269 33.0297 90.6537 33.1525C90.8823 33.2725 91.1298 33.3334 91.3999 33.3334Z" fill="#0A1A2F"/>
<path id="Vector_7" d="M45.4128 37.5286H42.3603C42.0046 37.5286 41.7073 37.4827 41.4682 37.3909C41.2292 37.299 41.0392 37.1743 40.8981 37.015C40.7569 36.8565 40.6591 36.6672 40.6035 36.447C40.548 36.2267 40.5207 35.9886 40.5207 35.7328V34.3775C39.736 35.4525 38.8656 36.2952 37.9095 36.9053C36.9535 37.5164 35.8987 37.821 34.746 37.821C34.0591 37.821 33.3976 37.6832 32.7596 37.4086C32.1216 37.134 31.558 36.7188 31.0677 36.1631C30.5774 35.6072 30.1851 34.8986 29.8906 34.0382C29.596 33.1778 29.4492 32.1609 29.4492 30.9884C29.4492 29.2665 29.7645 27.6329 30.3969 26.0884C31.0282 24.5438 31.9109 23.1913 33.0448 22.0309C34.1785 20.8706 35.5242 19.9492 37.0814 19.265C38.6378 18.5809 40.3485 18.2388 42.2126 18.2388C43.1196 18.2388 44.0391 18.2996 44.9716 18.4215C45.9031 18.5434 46.8224 18.7636 47.7305 19.0813L45.4128 37.5286ZM37.026 33.3334C37.4428 33.3334 37.8474 33.1778 38.2398 32.8667C38.6321 32.5554 39.003 32.1309 39.352 31.5938C39.7012 31.0568 40.023 30.4279 40.3176 29.7071C40.3203 29.6996 40.3231 29.6931 40.3259 29.6856C40.7899 28.5459 41.0787 27.3434 41.2321 26.1231L41.7337 22.1424H41.4024C40.4709 22.1424 39.6212 22.3506 38.8552 22.7657C38.0892 23.181 37.4296 23.7461 36.8782 24.4603C36.3269 25.1745 35.9006 26.0049 35.6003 26.9515C35.3002 27.8982 35.1496 28.9086 35.1496 29.9836C35.1496 30.5947 35.1985 31.1131 35.2964 31.5404C35.3944 31.9678 35.526 32.3127 35.6917 32.5752C35.8573 32.8375 36.053 33.0297 36.2798 33.1525C36.5084 33.2725 36.7559 33.3334 37.026 33.3334Z" fill="#0A1A2F"/>
</g>
</g>
</g>
</g>
<defs>
<clipPath id="clip0_2002_1533">
<rect width="102.778" height="50" fill="white"/>
</clipPath>
</defs>
</svg>
