<svg width="110" height="53" viewBox="0 0 110 53" fill="none" xmlns="http://www.w3.org/2000/svg">
<path fill-rule="evenodd" clip-rule="evenodd" d="M12.4457 16.5223C11.6658 16.3577 10.8123 16.2791 9.86642 16.2791H0.546021V35.4543H10.1284C11.0135 35.4543 11.879 35.3465 12.7115 35.1317C13.5537 34.9169 14.3059 34.5871 14.9605 34.1371C15.6106 33.6914 16.1376 33.114 16.5242 32.4011C16.9078 31.697 17.0999 30.8596 17.0999 29.8868C17.0999 28.6875 16.8057 27.6645 16.2059 26.8089C15.6083 25.9599 14.7068 25.3628 13.4899 25.0235C14.384 24.6135 15.0521 24.0856 15.5078 23.4419C15.9589 22.7975 16.1849 21.9907 16.1849 21.0259C16.1849 20.1332 16.034 19.3781 15.733 18.7759C15.4237 18.1635 14.9928 17.6778 14.4425 17.313C13.8833 16.9475 13.2212 16.6817 12.4457 16.5223ZM10.7642 32.0684C10.3814 32.1514 9.97377 32.1885 9.54363 32.1885H4.89919V26.9079H9.63146C10.5683 26.9079 11.3295 27.1169 11.9008 27.5371C12.4713 27.9638 12.758 28.665 12.758 29.6538C12.758 30.1577 12.6732 30.5749 12.4975 30.8968C12.3226 31.2208 12.0809 31.4757 11.7904 31.6621C11.4991 31.855 11.1538 31.9861 10.7642 32.0684ZM11.2191 23.4885C10.7132 23.849 10.0751 24.0259 9.30341 24.0259H4.89919V19.5448H8.97161C9.35596 19.5448 9.73205 19.5718 10.0909 19.6395C10.4557 19.7007 10.7702 19.8135 11.0487 19.9766C11.3295 20.1332 11.5517 20.3575 11.7198 20.6436C11.882 20.9298 11.9623 21.2982 11.9623 21.7446C11.9623 22.5477 11.7198 23.1339 11.2191 23.4885Z" fill="#757575"/>
<path fill-rule="evenodd" clip-rule="evenodd" d="M25.8472 32.9632C24.7445 32.9632 23.894 32.6829 23.3055 32.1251C22.7139 31.5673 22.3318 30.5275 22.3318 29.4302H32.6604C32.7347 28.3533 32.6446 27.3236 32.3871 26.3392C32.1274 25.3525 31.713 24.4729 31.129 23.704C30.5457 22.9336 29.8033 22.3176 28.8972 21.8639C27.9882 21.4037 26.9275 21.1773 25.7159 21.1773C24.6199 21.1773 23.629 21.3666 22.7312 21.7423C21.8334 22.1195 21.0617 22.6358 20.4116 23.2904C19.763 23.9414 19.2698 24.7176 18.9125 25.6176C18.5627 26.5139 18.384 27.4838 18.384 28.5215C18.384 29.5955 18.5559 30.5865 18.8975 31.4814C19.2428 32.3814 19.7277 33.1474 20.3515 33.7955C20.9919 34.4399 21.7523 34.9351 22.6629 35.2882C23.5742 35.637 24.5884 35.8139 25.7159 35.8139C27.3343 35.8139 28.7223 35.4542 29.8611 34.7334C31.0127 34.0147 31.8572 32.8219 32.4134 31.1501H28.9513C28.8169 31.5804 28.4701 31.994 27.9011 32.3814C27.3261 32.7688 26.6407 32.9632 25.8472 32.9632ZM25.598 24.0571C26.5634 24.0571 27.3554 24.328 27.8223 24.8297C28.2915 25.3358 28.6345 26.0545 28.7283 27.0266H22.3318C22.3498 26.7557 22.4099 26.4491 22.5112 26.1113C22.6118 25.7647 22.7845 25.4406 23.0382 25.1334C23.2934 24.8312 23.6267 24.5749 24.0336 24.3681C24.4502 24.1591 24.9697 24.0571 25.598 24.0571Z" fill="#757575"/>
<path d="M38.2467 16.2791V23.5089H38.3367C38.8359 22.7043 39.4673 22.1196 40.2427 21.757C41.0174 21.3922 41.7733 21.2109 42.5105 21.2109C43.5607 21.2109 44.4202 21.3448 45.0928 21.6215C45.7654 21.9019 46.2969 22.282 46.6865 22.7764C47.0694 23.2686 47.3389 23.8701 47.4972 24.5778C47.6526 25.2842 47.7337 26.0633 47.7337 26.9225V35.4543H43.7829V27.615C43.7829 26.471 43.599 25.6118 43.2319 25.0497C42.8648 24.4868 42.214 24.2043 41.2734 24.2043C40.2104 24.2043 39.4425 24.5174 38.9666 25.1334C38.4809 25.7509 38.2467 26.7659 38.2467 28.1786V35.4543H34.2966V16.2791H38.2467Z" fill="#757575"/>
<path fill-rule="evenodd" clip-rule="evenodd" d="M52.0814 22.1756C51.4546 22.5324 50.9389 23.0108 50.5388 23.6013C50.1259 24.1918 49.8969 24.936 49.8399 25.8368H53.7847C53.8635 25.0817 54.118 24.5414 54.5616 24.213C54.9933 23.8948 55.6028 23.728 56.3715 23.728C56.7176 23.728 57.0426 23.7528 57.3481 23.7957C57.6492 23.8431 57.9104 23.9312 58.1431 24.0666C58.3683 24.202 58.5537 24.3884 58.6896 24.6287C58.8262 24.8734 58.9005 25.2011 58.9005 25.6117C58.9186 26.0101 58.7962 26.3079 58.5417 26.5139C58.282 26.7185 57.9299 26.8795 57.4893 26.9865C57.0426 27.095 56.5427 27.1729 55.9647 27.2283C55.3896 27.2829 54.8124 27.355 54.2201 27.4431C53.6376 27.5312 53.049 27.6557 52.4688 27.8079C51.8847 27.9579 51.3675 28.188 50.9186 28.4931C50.4607 28.7967 50.0951 29.2067 49.8144 29.7171C49.5246 30.2261 49.379 30.877 49.379 31.6678C49.379 32.3851 49.5066 33.0047 49.7543 33.5268C50.0035 34.0445 50.3451 34.4734 50.7895 34.8178C51.2316 35.1571 51.7496 35.4076 52.3336 35.5693C52.9267 35.7302 53.5602 35.8139 54.2403 35.8139C55.1276 35.8139 55.9917 35.6887 56.8392 35.4397C57.6935 35.1877 58.4276 34.7465 59.0529 34.1188C59.071 34.3525 59.1032 34.5804 59.1498 34.8025C59.1948 35.029 59.2932 35.2882 59.4103 35.4542L63.4271 35.4637C63.2365 35.1797 63.0338 34.7465 62.9565 34.1698C62.8866 33.5967 62.8476 32.9989 62.8476 32.3698V25.1334C62.8476 24.2887 62.6509 23.6079 62.2613 23.1047C61.8762 22.5877 61.38 22.1931 60.772 21.9033C60.1617 21.6156 59.4906 21.4227 58.7549 21.3251C58.0087 21.2261 57.2828 21.1773 56.5659 21.1773C55.7695 21.1773 54.9843 21.2508 54.1991 21.4081C53.4109 21.5596 52.709 21.8137 52.0814 22.1756ZM57.4825 29.2067C57.7618 29.1499 58.032 29.0836 58.2767 29.0042C58.5297 28.9241 58.7309 28.812 58.9005 28.6649V30.0921C58.9005 30.3084 58.8773 30.596 58.8262 30.9542C58.7857 31.3096 58.6633 31.662 58.4614 32.0108C58.2625 32.3603 57.9434 32.661 57.5216 32.9115C57.0959 33.1613 56.4999 33.2858 55.7274 33.2858C55.4159 33.2858 55.1119 33.2654 54.8176 33.2079C54.5271 33.1554 54.2674 33.0615 54.0452 32.9261C53.8222 32.7914 53.6518 32.6101 53.5219 32.3763C53.3958 32.1418 53.329 31.855 53.329 31.5164C53.329 31.161 53.3958 30.8596 53.5219 30.628C53.6518 30.3979 53.8222 30.2057 54.0354 30.052C54.2404 29.8999 54.4903 29.7797 54.7756 29.6901C55.0556 29.5991 55.3506 29.5292 55.6449 29.4724C55.9534 29.4185 56.2717 29.377 56.581 29.3414C56.8932 29.3028 57.1943 29.2598 57.4825 29.2067Z" fill="#757575"/>
<path d="M68.7447 21.5736V23.509H68.8326C69.3295 22.7044 69.9721 22.1197 70.7693 21.7571C71.5598 21.3923 72.3788 21.211 73.2083 21.211C74.263 21.211 75.1292 21.345 75.7981 21.6217C76.479 21.902 77.0082 22.2821 77.3918 22.7765C77.7851 23.2688 78.0554 23.8702 78.213 24.578C78.3722 25.2843 78.451 26.0634 78.451 26.9226V35.4544H74.4987V27.6151C74.4987 26.4712 74.3133 25.612 73.9447 25.0498C73.5701 24.487 72.9253 24.1265 71.9787 24.1265C70.9097 24.1265 70.1297 24.5175 69.6516 25.1336C69.1689 25.751 68.9309 26.7661 68.9309 28.1787V35.4544H65.0214V21.5736H68.7447Z" fill="#757575"/>
<path d="M85.6277 24.4729C86.0473 24.1918 86.569 24.0571 87.2011 24.0571C88.8819 24.0571 89.8502 24.8479 90.1055 26.4324H93.9609C93.9001 25.5418 93.6809 24.7627 93.2973 24.1117C92.9092 23.4615 92.4025 22.9161 91.784 22.4792C91.1669 22.038 90.4635 21.7103 89.6813 21.4977C88.8931 21.2887 88.0771 21.1773 87.2274 21.1773C86.0661 21.1773 85.0316 21.3666 84.1263 21.7423C83.2172 22.1195 82.4486 22.6438 81.8202 23.3181C81.1859 23.988 80.71 24.7867 80.3879 25.7093C80.0644 26.6341 79.9015 27.6353 79.9015 28.71C79.9015 29.7484 80.0772 30.7045 80.4262 31.5753C80.7836 32.444 81.2715 33.1926 81.9006 33.8217C82.5296 34.4486 83.2931 34.9351 84.1924 35.2882C85.0932 35.637 86.0698 35.8139 87.1448 35.8139C89.047 35.8139 90.6092 35.3253 91.829 34.362C93.0443 33.3921 93.783 31.986 94.0435 30.1445H90.2466C90.1145 31.0037 89.8014 31.6889 89.2955 32.1994C88.7873 32.7069 88.0621 32.9632 87.1155 32.9632C86.5052 32.9632 85.991 32.8292 85.5684 32.5584C85.1435 32.2875 84.8072 31.9431 84.5542 31.5251C84.305 31.0991 84.1286 30.6309 84.0137 30.1118C83.9064 29.5904 83.8463 29.08 83.8463 28.5761C83.8463 28.0547 83.9064 27.5312 84.0137 27.0011C84.1286 26.471 84.314 25.9868 84.582 25.5491C84.8492 25.1086 85.199 24.754 85.6277 24.4729Z" fill="#757575"/>
<path d="M29.541 17.5652H21.5275V19.4577H29.541V17.5652Z" fill="#757575"/>
<path fill-rule="evenodd" clip-rule="evenodd" d="M102.549 32.9632C101.438 32.9632 100.546 32.6829 99.9553 32.1251C99.363 31.5673 98.9854 30.5275 98.9854 29.4302H109.36C109.433 28.3533 109.335 27.3236 109.081 26.3392C108.824 25.3525 108.404 24.4729 107.821 23.704C107.241 22.9336 106.495 22.3176 105.587 21.8639C104.687 21.4037 103.622 21.1773 102.412 21.1773C101.322 21.1773 100.323 21.3666 99.4238 21.7423C98.5282 22.1195 97.7641 22.6358 97.1095 23.2904C96.4654 23.9414 95.9617 24.7176 95.6074 25.6176C95.2575 26.5139 95.0819 27.4838 95.0819 28.5215C95.0819 29.5955 95.2515 30.5865 95.5931 31.4814C95.9369 32.3814 96.4203 33.1474 97.0509 33.7955C97.6882 34.4399 98.4502 34.9351 99.3592 35.2882C100.263 35.637 101.282 35.8139 102.412 35.8139C104.036 35.8139 105.419 35.4542 106.561 34.7334C107.706 34.0147 108.556 32.8219 109.109 31.1501H105.647C105.521 31.5804 105.166 31.994 104.595 32.3814C104.024 32.7688 103.34 32.9632 102.549 32.9632ZM102.297 24.0571C103.251 24.0571 104.048 24.328 104.522 24.8297C104.991 25.3358 105.326 26.0545 105.431 27.0266H98.9854C99.0027 26.7557 99.068 26.4491 99.1611 26.1113C99.2654 25.7647 99.4448 25.4406 99.6948 25.1334C99.9448 24.8312 100.317 24.5749 100.725 24.3681C101.148 24.1591 101.67 24.0571 102.297 24.0571Z" fill="#757575"/>
</svg>
