<svg width="129" height="50" viewBox="0 0 129 50" fill="none" xmlns="http://www.w3.org/2000/svg">
<path d="M61.0532 16.32L61.0264 16.3259C60.0305 16.5507 59.5247 16.8861 59.5247 18.0954H59.5202L59.5247 32.604C59.6101 33.5592 60.1234 33.8541 61.0264 34.0578L61.0532 34.064V34.2693H54.1019V34.064L54.1287 34.0578C55.0307 33.8541 55.532 33.5592 55.6173 32.604V18.4894L48.9174 34.2367H48.5481L42.0379 18.9167V32.2543C42.0379 33.4637 42.5436 33.7991 43.5399 34.0239L43.5663 34.0298V34.2367H39.5758V34.0291L39.6022 34.0233C40.5984 33.7984 41.1061 33.4631 41.1061 32.2537V18.0954C41.1061 16.8861 40.6004 16.5507 39.6041 16.3259L39.5777 16.32V16.1131H45.4594L50.5273 28.0243L55.5952 16.1131H61.0532V16.32Z" fill="#757575"/>
<path fill-rule="evenodd" clip-rule="evenodd" d="M72.28 26.4219H64.1328L64.1318 26.4226C63.9738 29.2148 65.7153 31.5198 67.9887 31.6899C69.654 31.8144 71.1173 30.7937 71.932 29.1095L72.1663 29.192C71.7026 32.3257 69.8427 34.6604 66.649 34.6604C63.0105 34.6604 60.9619 31.6296 60.8736 27.8372C60.871 27.6906 60.872 27.5449 60.8752 27.4002C60.8772 27.31 60.8808 27.22 60.8853 27.1304C60.8876 27.0825 60.8899 27.0375 60.8935 26.9873C60.8971 26.9371 60.9006 26.887 60.9049 26.8368C61.0359 25.1623 61.5749 23.6724 62.4646 22.5699C63.0173 21.8855 63.6815 21.3641 64.4346 21.0154C65.0961 20.6824 66.0259 20.4986 66.7839 20.4986H66.8165C68.2771 20.4986 69.6677 20.9926 70.6069 21.8904C71.6934 22.9294 72.2569 24.4425 72.28 26.3877V26.4219ZM66.7618 21.2934C65.2288 21.325 64.3153 23.1611 64.2016 25.705H68.8549C68.9025 23.7193 68.5946 22.3907 67.9395 21.7549C67.6312 21.4563 67.2346 21.3012 66.7618 21.2934Z" fill="#757575"/>
<path fill-rule="evenodd" clip-rule="evenodd" d="M85.3941 32.1895C85.3941 33.4605 85.8999 33.8114 86.8962 34.0471L86.9226 34.0523V34.2693H81.4916V32.1738C80.8695 33.7349 79.5105 34.6604 77.8214 34.6604C74.9341 34.6604 72.9941 32.0116 72.9944 28.0706C72.9944 25.864 73.6289 23.9614 74.8291 22.5693C75.9805 21.2334 77.577 20.4979 79.3238 20.4979C80.1851 20.4979 80.8949 20.6833 81.4916 21.0643V18.7459C81.4916 18.2323 81.3661 17.8673 81.1087 17.6294C80.7799 17.3257 80.2135 17.2103 79.3785 17.2778L79.3414 17.2807V17.0624L85.3941 15.2791V32.1895ZM79.9195 32.5437C80.6668 32.5437 81.2244 32.195 81.4916 31.5612V22.2232C81.2276 21.6147 80.6743 21.266 79.9714 21.266C78.2927 21.266 77.2081 23.5215 77.2081 27.0085C77.2081 28.6839 77.4825 30.0983 78.0039 31.0987C78.4892 32.0308 79.1723 32.5437 79.9195 32.5437Z" fill="#757575"/>
<path d="M89.9286 15.4202C91.1594 15.4202 92.0872 16.3484 92.0872 17.5789C92.0872 18.8095 91.1594 19.7376 89.9286 19.7376C88.7045 19.7376 87.7451 18.7893 87.7451 17.5789C87.7451 16.3686 88.7035 15.4202 89.9286 15.4202Z" fill="#757575"/>
<path d="M92.0139 32.1895C92.0139 33.4605 92.5197 33.8114 93.5159 34.0471L93.5436 34.0523V34.2693H88.1078V24.1948C88.1078 22.8215 87.7862 22.4167 86.611 22.3121L86.5784 22.3092V22.0974L92.0097 20.538V32.1895H92.0139Z" fill="#757575"/>
<path d="M105.931 32.1895C105.931 33.4605 106.437 33.8114 107.433 34.0471L107.459 34.0559V34.2729H102.028V32.122C101.41 33.6707 100.009 34.6604 98.4101 34.6604C96.5226 34.6604 95.3178 33.7987 94.858 32.151L94.7602 31.7258C94.6822 31.2977 94.6443 30.8632 94.6471 30.4281V24.1948C94.6471 22.8212 94.3251 22.4164 93.15 22.3121L93.1174 22.3092V22.0977L98.5486 20.5383V30.3254C98.5486 31.7733 99.1988 32.5708 100.379 32.5708C101.108 32.5454 101.708 32.169 102.029 31.5351V24.17C102.029 22.7905 101.751 22.3626 100.79 22.2616L100.76 22.2584V22.0459L105.931 20.538V32.1895Z" fill="#757575"/>
<path d="M128.532 34.0519V34.2693H123.102V24.5995C123.102 23.0362 122.545 22.2766 121.401 22.2766C120.455 22.2766 119.968 22.9619 119.727 23.5411C119.776 23.8391 119.8 24.1409 119.798 24.4431V32.5252C119.798 33.4735 120.077 33.8431 120.939 34.0458L120.966 34.0523V34.2693H115.897V24.5995C115.897 23.0587 115.324 22.2766 114.196 22.2766C113.287 22.2766 112.827 22.9078 112.599 23.4407V32.5252C112.599 33.4735 112.877 33.8431 113.739 34.0458L113.766 34.0523V34.2693H108.698V24.1081C108.698 22.77 108.363 22.3535 107.202 22.2505L107.169 22.2476V22.0345L112.6 20.539V22.8159C113.149 21.3599 114.43 20.4979 116.063 20.4979C117.922 20.4979 119.18 21.3863 119.617 23.0027C120.167 21.4772 121.596 20.4979 123.291 20.4979C125.616 20.4979 127.004 21.9729 127.004 24.4441V32.3697C127.004 33.3265 127.425 33.7965 128.506 34.0458L128.532 34.0519Z" fill="#757575"/>
<path d="M10.107 34.814C15.4076 34.814 19.7044 30.4875 19.7044 25.1507C19.7044 19.814 15.4073 15.4878 10.107 15.4878C4.80674 15.4878 0.509888 19.8127 0.509888 25.1507C0.509888 30.4888 4.80641 34.814 10.107 34.814Z" fill="#757575"/>
<path d="M25.4339 34.2471C28.084 34.2471 30.2326 30.1748 30.2326 25.1509C30.2326 20.1283 28.084 16.0547 25.4339 16.0547C22.7838 16.0547 20.6352 20.1283 20.6352 25.1509C20.6352 30.1735 22.7838 34.2471 25.4339 34.2471Z" fill="#757575"/>
<path d="M34.5391 25.1509C34.5391 29.6521 33.7833 33.3007 32.8513 33.3007C31.9192 33.3007 31.1635 29.6508 31.1635 25.1509C31.1635 20.651 31.9192 17.0011 32.8516 17.0011C33.784 17.0011 34.5391 20.6501 34.5391 25.1509Z" fill="#757575"/>
</svg>
