<svg width="103" height="50" viewBox="0 0 103 50" fill="none" xmlns="http://www.w3.org/2000/svg">
<path d="M0.926025 21.3838C0.926025 17.1202 4.46278 12.0233 11.455 12.0233C17.1039 12.0233 20.8052 16.1459 20.7754 20.5525C20.7754 26.4285 17.5676 30.831 12.8242 30.831C11.2331 30.831 9.75305 29.9674 9.23195 28.9649C9.23195 28.9649 8.38194 32.4193 8.18974 33.0876C7.61662 35.2428 5.99923 37.3729 5.60862 37.8874C5.5698 37.9385 5.5431 37.9737 5.53074 37.9913C5.42176 38.1302 5.20183 38.0739 5.17409 37.9068C5.1715 37.8808 5.16485 37.8313 5.15539 37.7609C5.06353 37.077 4.70684 34.4213 5.22957 32.224C5.50498 30.9981 7.12178 24.0612 7.12178 24.0612C7.12178 24.0612 6.65616 23.115 6.65616 21.6938C6.65616 19.4634 7.91631 17.8208 9.50736 17.8208C10.8507 17.8208 11.5085 18.8515 11.5085 20.0774C11.5085 20.9496 11.1614 22.1063 10.7965 23.3221C10.5904 24.0087 10.3787 24.7142 10.2207 25.3978C9.86401 26.9861 11.0152 28.2946 12.5507 28.2946C15.3207 28.2946 17.2129 24.6449 17.2129 20.327C17.2129 17.0397 15.0195 14.5879 11.0707 14.5879C6.60266 14.5879 3.80496 17.9858 3.80496 21.7744C3.80496 23.0567 4.16161 23.9746 4.76395 24.6993C5.03936 25.0335 5.09286 25.1724 4.98388 25.5347C4.90264 25.8125 4.73819 26.4808 4.68271 26.7325C4.57175 27.0948 4.27059 27.2337 3.94168 27.0948C1.88501 26.2594 0.926025 23.9464 0.926025 21.3838Z" fill="#757575"/>
<path fill-rule="evenodd" clip-rule="evenodd" d="M98.9233 24.53H101.39C101.719 24.53 101.939 24.3911 101.992 24.0851C102.101 23.6121 102.294 22.831 102.349 22.6096C102.432 22.3318 102.266 22.1083 101.937 22.1083H99.4959C99.5244 21.9876 99.5686 21.8184 99.6221 21.6133C99.8774 20.6346 100.346 18.8383 100.346 17.5951C100.346 14.6138 97.8514 12.0512 94.2869 12.0512C90.2845 12.0512 87.679 14.7809 87.679 18.6258C87.679 19.741 88.0911 21.0495 88.6123 21.8567C88.5023 21.8567 88.3928 21.8497 88.2833 21.8426C88.1739 21.8356 88.0644 21.8285 87.9544 21.8285C84.911 21.8285 82.9911 23.4993 82.9911 25.9512C82.9911 28.236 84.7743 29.1278 86.4466 29.7115C86.6688 29.791 86.8886 29.8642 87.1016 29.9351C88.3075 30.3367 89.2978 30.6665 89.2978 31.6622C89.2978 32.4694 88.5568 32.9163 87.0767 32.9163C85.3212 32.9163 84.3622 32.0809 84.1145 31.7749C84.279 31.636 84.5267 31.33 84.5267 30.8006C84.5267 30.0759 84.0056 29.4639 83.0743 29.4639C82.2798 29.4639 81.5942 30.1323 81.4298 30.9959C80.1419 32.0547 78.743 32.7512 76.7676 32.7512C74.8199 32.7512 73.8054 31.7205 73.8054 29.5203C74.2711 29.6592 75.45 29.8263 76.2465 29.8263C79.5633 29.8263 81.8122 28.2944 81.8122 25.2567C81.8122 23.6141 80.3856 21.8869 77.5899 21.8869C73.8887 21.8869 71.832 24.2542 70.9265 26.8732C70.6788 26.8168 70.4331 26.7625 70.1597 26.7061C70.3519 26.1203 70.5164 25.452 70.5164 24.7011C70.5164 23.4188 69.7218 21.8869 67.6097 21.8869C66.1296 21.8869 64.7585 22.8612 63.7975 24.3388C64.0452 23.3906 64.2096 22.7505 64.2096 22.6961C64.2651 22.4445 64.1819 22.1667 63.7975 22.1667H61.6319C61.3307 22.1667 61.1108 22.2774 61.0295 22.6398C60.9741 22.8914 60.235 25.8425 59.494 28.7131C59.0284 30.5248 56.6705 32.7532 53.7084 32.7532C51.7607 32.7532 50.7462 31.6662 50.7462 29.466C51.2673 29.6612 52.3907 29.8565 53.1873 29.8565C56.615 29.8565 58.7529 28.3246 58.7529 25.2869C58.7529 23.6443 57.3264 21.9171 54.5306 21.9171C50.3638 21.9171 47.8138 25.2044 47.4016 28.9104C47.2094 30.4705 45.9493 32.5882 44.5504 32.5882C43.8649 32.5882 43.4805 32.1433 43.4805 31.4186C43.4805 30.8792 43.7914 29.6868 44.1855 28.1748L44.1861 28.1725C44.2596 27.8907 44.336 27.5978 44.4137 27.2959C44.5782 26.6558 44.8259 25.6533 45.0993 24.5381H47.3481C47.6771 24.5381 47.8693 24.3992 47.9505 24.0932C48.0595 23.6201 48.2517 22.8391 48.3071 22.6176C48.3903 22.3398 48.2239 22.1164 47.895 22.1164H45.6739C45.6739 22.1164 46.6884 17.9655 46.7161 17.8548C46.8251 17.4361 46.4684 17.1865 46.1137 17.269C46.1137 17.269 44.386 17.6032 44.0848 17.6877C43.7559 17.7441 43.5082 17.9393 43.3993 18.4124C43.3715 18.4688 42.4938 22.1446 42.4938 22.1446H40.7105C40.3816 22.1446 40.1894 22.2835 40.1082 22.5894C39.9992 23.0625 39.807 23.8436 39.7516 24.065C39.6683 24.3428 39.8348 24.5662 40.1637 24.5662H41.9192C41.9192 24.5862 41.8402 24.8994 41.7163 25.3907C41.4902 26.2873 41.1144 27.7772 40.7957 29.162C40.5481 30.1927 39.7813 32.6163 38.4656 32.6163C37.6989 32.6163 37.368 32.2258 37.368 31.3622C37.368 30.7167 37.6684 29.603 37.979 28.4514C38.3116 27.2185 38.6559 25.9421 38.6559 25.15C38.6559 23.1169 37.5859 21.9473 35.3925 21.9473C33.9937 21.9473 32.5691 22.8672 31.9648 23.6463C31.9648 23.6463 32.1569 23.0061 32.2124 22.7545C32.2679 22.4767 32.1292 22.2251 31.8003 22.2251H29.6624C29.1968 22.2251 29.0858 22.4767 29.0046 22.7545L28.9432 23.0017C28.7438 23.8041 28.0972 26.4071 27.469 28.9104C26.9479 30.9435 25.7135 32.6425 24.3979 32.6425C23.7123 32.6425 23.4112 32.1976 23.4112 31.4729C23.4112 30.9473 23.689 29.8016 24.0462 28.3287C24.124 28.0077 24.2056 27.6711 24.2889 27.3221C24.7181 25.5598 25.1166 24.0284 25.3143 23.2685C25.3822 23.0077 25.4264 22.8378 25.4401 22.7807C25.5233 22.5029 25.3846 22.2231 25.0022 22.2231H22.8366C22.4522 22.2231 22.3155 22.4183 22.2342 22.7243C22.2342 22.7243 21.6319 25.0635 20.9721 27.6824C20.8998 27.9764 20.8262 28.271 20.7535 28.5624C20.3573 30.1485 19.9854 31.6375 19.9854 32.3909C19.9854 34.0073 20.6987 35.2333 22.6721 35.2333C24.1799 35.2333 25.3866 34.4542 26.2921 33.4497C26.1554 33.9792 26.0721 34.3415 26.0721 34.3697C25.9889 34.6757 26.0999 34.9555 26.4565 34.9555H28.6777C29.062 34.9555 29.1988 34.7884 29.28 34.4542L31.0078 27.5173C31.4456 25.7338 32.5156 24.5642 34.0511 24.5642C34.7644 24.5642 35.3945 25.0373 35.3133 25.9854C35.2803 26.3934 35.0673 27.2246 34.822 28.1821C34.4475 29.6436 33.9976 31.3992 33.9976 32.3929C33.9976 33.6188 34.4355 35.2353 36.7399 35.2353C38.3032 35.2353 39.4543 34.4824 40.2766 33.4799C40.5778 34.5106 41.4001 35.2353 42.8821 35.2353C45.3489 35.2353 46.8587 33.7597 47.7088 32.254C48.4221 33.9812 50.1498 35.2353 52.6444 35.2353C55.1944 35.2353 57.1678 34.1483 58.539 32.6727L58.5019 32.8226C58.275 33.7411 58.1255 34.3464 58.1011 34.3999C58.0178 34.7059 58.1565 34.9575 58.5132 34.9575H60.7066C61.0077 34.9575 61.2277 34.7904 61.3089 34.4844C61.3223 34.404 61.4054 34.078 61.537 33.5626C61.6787 33.0075 61.8764 32.2326 62.1034 31.3079C62.9535 27.9381 64.3246 24.4273 66.409 24.4273C67.15 24.4273 67.4234 24.8461 67.4234 25.4862C67.4234 25.7922 67.3402 26.072 67.259 26.2109C66.2722 26.0156 65.45 26.5169 65.45 27.6039C65.45 28.3004 66.191 28.9405 67.1777 28.9405C67.9445 28.9405 68.5489 28.7453 69.0422 28.4111C69.5078 28.4957 70.0012 28.6064 70.5223 28.7453C70.4391 29.2465 70.4133 29.7478 70.4133 30.2208C70.4133 32.9223 72.3055 35.2353 75.7333 35.2353C78.4201 35.2353 80.2568 34.2328 81.8201 32.9787C82.5869 34.2328 84.5068 35.2635 87.0291 35.2635C90.4846 35.2635 92.4581 33.4256 92.4581 31.0301C92.4581 28.858 90.7026 28.0488 88.8659 27.3805C88.6656 27.305 88.4699 27.2347 88.2812 27.1669C87.0744 26.7334 86.1514 26.4018 86.1514 25.4862C86.1514 24.6226 86.8369 24.2039 87.9881 24.2039C88.7101 24.2039 89.2741 24.3625 89.5811 24.4488L89.6049 24.4555C89.9061 25.2084 90.5104 26.0438 91.5784 26.0438C92.4839 26.0438 92.8663 25.3191 92.8663 24.679C92.8663 23.9075 92.3568 23.4178 91.7529 22.8373C90.8741 21.9926 89.7951 20.9555 89.7951 18.5775C89.7951 16.0713 91.194 14.0079 94.0729 14.0079C96.0741 14.0079 97.3897 15.2902 97.3897 17.4059C97.3897 19.1331 96.3475 22.1969 96.3475 22.1969H94.592C94.2631 22.1969 94.0709 22.3358 93.9897 22.6418C93.8807 23.1148 93.6885 23.8959 93.633 24.1173C93.5498 24.3951 93.7163 24.6186 94.0452 24.6186H95.7452C95.7452 24.6186 93.9897 31.2213 93.9897 32.4472C93.9897 34.0637 94.8952 35.2896 96.8409 35.2896C99.6109 35.2896 101.364 33.4517 102.105 30.8046C102.161 30.6094 102.05 30.4423 101.832 30.4423H100.762C100.542 30.4423 100.433 30.553 100.378 30.7764C100.13 31.7246 99.5554 32.7271 98.3765 32.7271C97.6909 32.7271 97.3065 32.2822 97.3065 31.5575C97.3065 31.0013 97.6177 29.8128 98.0411 28.1954C98.105 27.9514 98.1714 27.6976 98.2397 27.4348C98.4854 26.3135 98.9233 24.53 98.9233 24.53ZM77.043 24.4193C78.0297 24.4193 78.4954 25.0876 78.4954 25.8687C78.4954 27.2053 77.4809 28.0146 75.8898 28.0146C75.3133 28.0146 74.5187 27.8757 74.0531 27.7086C74.2196 26.5088 75.0973 24.4193 77.043 24.4193ZM53.956 24.4193C55.026 24.4193 55.4084 25.0876 55.4084 25.8687C55.4084 27.2053 54.3939 28.0146 52.8029 28.0146C52.2263 28.0146 51.4318 27.8757 50.9661 27.7086C51.1326 26.5088 51.8994 24.4193 53.956 24.4193Z" fill="#757575"/>
<path d="M24.2331 21.2149C25.3308 21.2149 26.3987 20.295 26.5632 19.1254C26.7831 18.0102 26.0421 17.064 24.9464 17.064C23.8487 17.064 22.7807 17.984 22.6163 19.1254C22.3686 20.2688 23.0819 21.2149 24.2331 21.2149Z" fill="#757575"/>
</svg>
