<svg width="93" height="53" viewBox="0 0 93 53" fill="none" xmlns="http://www.w3.org/2000/svg">
<path d="M83.8233 23.0352C84.9331 23.0352 85.8327 22.1133 85.8327 20.976C85.8327 19.8388 84.9331 18.9168 83.8233 18.9168C82.7136 18.9168 81.814 19.8388 81.814 20.976C81.814 22.1133 82.7136 23.0352 83.8233 23.0352Z" fill="#757575"/>
<path fill-rule="evenodd" clip-rule="evenodd" d="M66.9131 17.6157C67.5386 17.6157 68.0504 18.1402 68.0504 18.7812V33.7587C68.0504 34.3998 67.5386 34.9243 66.9131 34.9243C66.3633 34.9243 65.8894 34.5164 65.7946 33.9724C65.0174 34.7689 64.0317 35.1768 62.8754 35.1768C59.8803 35.1768 57.4539 32.3989 57.4539 28.9799C57.4539 25.5609 59.8803 22.783 62.8754 22.783C64.0317 22.783 64.9985 23.1715 65.7757 23.968V18.7812C65.7757 18.1402 66.2875 17.6157 66.9131 17.6157ZM59.7476 28.9799C59.7476 31.1362 61.1504 32.8651 62.8943 32.8651C64.6194 32.8651 66.0411 31.1362 66.0411 28.9799C66.0411 26.8236 64.6383 25.0947 62.8943 25.0947C61.1504 25.0947 59.7476 26.8431 59.7476 28.9799Z" fill="#757575"/>
<path fill-rule="evenodd" clip-rule="evenodd" d="M56.6368 28.261C56.6747 28.9992 56.1061 29.7568 55.1203 29.7568V29.7179H48.2013C48.4856 31.4857 49.7747 32.8261 51.2912 32.8261C52.5453 32.8261 53.3328 32.1274 53.7586 31.7496L53.7934 31.7188C54.2294 31.3497 54.817 31.2332 55.2909 31.5634C55.8596 31.9714 55.9544 32.8067 55.4805 33.3506C54.5137 34.4579 53.1678 35.1572 51.2912 35.1572C48.2961 35.1572 45.8697 32.3793 45.8697 28.9603C45.8697 25.5413 48.2961 22.7634 51.2912 22.7634C53.8123 22.7634 55.9354 24.7449 56.542 27.4257C56.58 27.6199 56.6179 27.8725 56.6368 28.261ZM54.2483 27.6976C53.8123 26.2018 52.6371 25.114 51.2722 25.114C49.9074 25.114 48.7321 26.1824 48.2961 27.6976H54.2483Z" fill="#757575"/>
<path d="M45.0361 22.8412C45.5668 22.9384 45.9839 23.4046 45.9839 23.9874C45.9839 24.5896 45.5289 25.0947 44.9602 25.1335H44.7328C42.5338 24.881 40.9415 26.6682 40.9415 28.8439V33.7587C40.9415 34.4386 40.3918 34.9631 39.7283 34.9243C39.1217 34.8854 38.6668 34.3415 38.6668 33.7198V24.2011C38.6668 23.56 39.1786 23.0355 39.8041 23.0355C40.3728 23.0355 40.9415 23.4823 40.9415 24.2011V24.3565C41.8325 23.2103 43.3869 22.5887 45.0361 22.8412Z" fill="#757575"/>
<path d="M84.9585 25.2301C84.9585 24.5891 84.4467 24.0646 83.8211 24.0646C83.1956 24.0646 82.6838 24.5891 82.6838 25.2301V33.7582C82.6838 34.3992 83.1956 34.9237 83.8211 34.9237C84.4467 34.9237 84.9585 34.3992 84.9585 33.7582V25.2301Z" fill="#757575"/>
<path fill-rule="evenodd" clip-rule="evenodd" d="M79.9145 18.7812C79.9145 18.1402 79.4027 17.6157 78.7771 17.6157C78.1516 17.6157 77.6397 18.1402 77.6397 18.7812V23.968C76.8625 23.1715 75.8958 22.783 74.7394 22.783C71.7443 22.783 69.3179 25.5609 69.3179 28.9799C69.3179 32.3989 71.7443 35.1768 74.7394 35.1768C75.8958 35.1768 76.8815 34.7689 77.6587 33.9724C77.7535 34.5164 78.2274 34.9243 78.7771 34.9243C79.4027 34.9243 79.9145 34.3998 79.9145 33.7587V18.7812ZM74.7394 32.8651C72.9954 32.8651 71.5927 31.1362 71.5927 28.9799C71.5927 26.8431 72.9954 25.0947 74.7394 25.0947C76.4834 25.0947 77.8862 26.8236 77.8862 28.9799C77.8862 31.1362 76.4834 32.8651 74.7394 32.8651Z" fill="#757575"/>
<path d="M90.7214 25.114V33.778C90.7214 34.4191 90.2285 34.9242 89.565 34.963C88.9395 34.963 88.4277 34.4385 88.4277 33.7975V25.1334H87.4609C86.8922 25.1334 86.4183 24.6283 86.4562 24.0261C86.4941 23.4628 86.968 23.0548 87.4988 23.0548H88.4466V21.3648C88.4466 20.6849 88.9964 20.1603 89.6598 20.1992C90.2664 20.2381 90.7214 20.782 90.7214 21.4036V23.0354H91.764C92.3327 23.0354 92.8066 23.5405 92.7687 24.1427C92.7307 24.7061 92.2568 25.114 91.7261 25.114H90.7214Z" fill="#757575"/>
<path d="M16.4081 42.3255C25.1813 42.3255 32.2934 35.0371 32.2934 26.0465C32.2934 17.0558 25.1813 9.7674 16.4081 9.7674C7.63482 9.7674 0.522705 17.0558 0.522705 26.0465C0.522705 35.0371 7.63482 42.3255 16.4081 42.3255Z" fill="#757575"/>
<path d="M27.0065 26.0466C27.0065 24.7256 25.9639 23.6766 24.6938 23.6766C24.0683 23.6766 23.4996 23.9292 23.0825 24.3371C21.4902 23.1716 19.3102 22.4139 16.8838 22.3168L17.9454 17.2272L21.3954 17.9848C21.4333 18.8784 22.1537 19.5972 23.0446 19.5972C23.9545 19.5972 24.6938 18.8395 24.6938 17.9071C24.6938 16.9746 23.9545 16.217 23.0446 16.217C22.4001 16.217 21.8314 16.6055 21.566 17.1689L17.7179 16.3336C17.6042 16.3141 17.4904 16.3336 17.4146 16.3918C17.3198 16.4501 17.263 16.5473 17.244 16.6638L16.0687 22.3362C13.6044 22.4139 11.3865 23.1716 9.77523 24.3565C9.35819 23.9486 8.78951 23.6961 8.16395 23.6961C6.87492 23.6961 5.85128 24.7645 5.85128 26.066C5.85128 27.0373 6.41997 27.8532 7.21614 28.2223C7.17822 28.4555 7.15927 28.6886 7.15927 28.9411C7.15927 32.5932 11.3107 35.5654 16.4289 35.5654C21.5471 35.5654 25.6985 32.6126 25.6985 28.9411C25.6985 28.708 25.6795 28.4555 25.6416 28.2223C26.4378 27.8532 27.0065 27.0179 27.0065 26.0466ZM11.1211 27.7367C11.1211 26.8042 11.8604 26.0466 12.7703 26.0466C13.6802 26.0466 14.4195 26.8042 14.4195 27.7367C14.4195 28.6691 13.6802 29.4268 12.7703 29.4268C11.8604 29.4462 11.1211 28.6691 11.1211 27.7367ZM20.3528 32.2241C19.2155 33.3897 17.0544 33.4674 16.4289 33.4674C15.7844 33.4674 13.6234 33.3703 12.5049 32.2241C12.3343 32.0493 12.3343 31.7773 12.5049 31.6025C12.6755 31.4276 12.9409 31.4276 13.1115 31.6025C13.8319 32.3407 15.3484 32.5932 16.4289 32.5932C17.5094 32.5932 19.0448 32.3407 19.7462 31.6025C19.9168 31.4276 20.1822 31.4276 20.3528 31.6025C20.5045 31.7773 20.5045 32.0493 20.3528 32.2241ZM20.0495 29.4462C19.1396 29.4462 18.4003 28.6886 18.4003 27.7561C18.4003 26.8237 19.1396 26.066 20.0495 26.066C20.9594 26.066 21.6987 26.8237 21.6987 27.7561C21.6987 28.6691 20.9594 29.4462 20.0495 29.4462Z" fill="white"/>
</svg>
