<svg width="107" height="50" viewBox="0 0 107 50" fill="none" xmlns="http://www.w3.org/2000/svg">
<path d="M15.9177 20.3635V29.0831C15.9177 33.4382 12.3992 36.982 8.07506 36.9861C6.4661 36.9874 4.89615 36.4874 3.58055 35.5547C2.22631 34.0963 1.47335 32.1739 1.47429 30.1772C1.47429 25.8847 4.89265 22.3838 9.13164 22.2841V25.6453C8.78992 25.5359 8.43363 25.4797 8.07506 25.4784C7.2741 25.4781 6.49615 25.7482 5.86563 26.2456C5.23512 26.7431 4.78845 27.439 4.59708 28.2223C4.4057 29.0055 4.48067 29.8307 4.80999 30.566C5.13932 31.3013 5.70397 31.9041 6.41364 32.278C6.84833 32.8887 7.46187 33.3471 8.16828 33.589C8.87468 33.8309 9.63853 33.8442 10.3528 33.6269C11.067 33.4097 11.6959 32.9728 12.1512 32.3776C12.6066 31.7823 12.8655 31.0585 12.8918 30.3076L12.8987 13.1119H16.0178C16.1657 13.9074 16.4722 14.6644 16.9191 15.3371C17.3659 16.0098 17.9436 16.5842 18.6173 17.0255C19.4584 18.0011 20.591 18.6759 21.8452 18.9483V22.2829C19.7183 22.2855 17.6445 21.614 15.9177 20.3635Z" fill="#757575"/>
<path d="M40.62 18.9623H27.3039L27.3074 22.8045L31.6373 22.7964V36.978H35.9442V22.7982H39.3971L40.62 18.9623Z" fill="#757575"/>
<path d="M62.4268 18.9623H76.0479L74.8256 22.7982H71.0706V36.978H66.7602V22.7964L62.4297 22.8045L62.4268 18.9623Z" fill="#757575"/>
<path d="M45.6982 24.6931H41.4299L41.4552 36.9785H45.6936L45.6982 24.6931Z" fill="#757575"/>
<path d="M47.3907 18.912H51.6545V27.3042L55.8802 23.1316H60.9698L55.6247 28.3473L61.6097 36.9759H56.912L52.9182 30.9946L51.6521 32.2319V36.9782H47.3884L47.3907 18.912Z" fill="#757575"/>
<path d="M96.8315 18.912H92.5677L92.5637 36.9759H96.8275V32.2296L98.0935 30.9923L102.089 36.9759H106.787L100.802 28.3473L106.147 23.1316H101.057L96.8315 27.3042V18.912Z" fill="#757575"/>
<path d="M43.5623 23.2889C44.7491 23.2889 45.7111 22.3201 45.7111 21.125C45.7111 19.9298 44.7491 18.961 43.5623 18.961C42.3755 18.961 41.4134 19.9298 41.4134 21.125C41.4134 22.3201 42.3755 23.2889 43.5623 23.2889Z" fill="#757575"/>
<path fill-rule="evenodd" clip-rule="evenodd" d="M78.6805 23.5092C79.8815 22.701 81.2935 22.2696 82.738 22.2696C84.6746 22.2695 86.5319 23.044 87.9014 24.4229C89.271 25.8017 90.0405 27.6719 90.0408 29.6221C90.0412 31.0767 89.6132 32.4987 88.8109 33.7083C88.0087 34.918 86.8682 35.8608 85.5339 36.4177C84.1995 36.9746 82.731 37.1205 81.3143 36.8369C79.8976 36.5534 78.5962 35.8531 77.5747 34.8246C76.5532 33.7962 75.8575 32.4858 75.5756 31.0592C75.2936 29.6326 75.4382 28.1538 75.9909 26.8099C76.5435 25.466 77.4796 24.3173 78.6805 23.5092ZM80.7658 32.5965C81.3496 32.9893 82.0359 33.1989 82.738 33.1989C83.2043 33.1989 83.6661 33.1064 84.097 32.9266C84.5278 32.7468 84.9192 32.4834 85.2489 32.1512C85.5786 31.819 85.8401 31.4247 86.0184 30.9908C86.1967 30.5568 86.2883 30.0917 86.2881 29.6221C86.2878 28.9151 86.0793 28.224 85.689 27.6364C85.2987 27.0487 84.7441 26.5907 84.0954 26.3204C83.4466 26.05 82.7329 25.9795 82.0443 26.1176C81.3558 26.2558 80.7234 26.5964 80.227 27.0965C79.7307 27.5965 79.3928 28.2336 79.2559 28.927C79.1191 29.6205 79.1895 30.3392 79.4582 30.9924C79.727 31.6455 80.182 32.2038 80.7658 32.5965Z" fill="#757575"/>
<path d="M9.31752 33.7792C10.2433 33.7777 11.1325 33.4154 11.7989 32.7683C12.4653 32.1212 12.8566 31.2392 12.8918 30.3076L12.8987 13.1119H16.0178C15.9515 12.7528 15.9185 12.3886 15.9183 12.0233H11.6597L11.6505 29.2166C11.6291 29.8254 11.4547 30.4187 11.1435 30.941C10.8323 31.4633 10.3946 31.8975 9.87126 32.203C9.34796 32.5085 8.75623 32.6752 8.1515 32.6875C7.54676 32.6999 6.94881 32.5575 6.41364 32.2736C6.74409 32.7389 7.17986 33.1181 7.68485 33.3799C8.18984 33.6418 8.74952 33.7786 9.31752 33.7792Z" fill="#757575"/>
<path d="M9.13206 22.279V21.2625C8.78197 21.213 8.42899 21.1873 8.07548 21.1854C3.75073 21.1854 0.232819 24.7286 0.232819 29.0832C0.233319 30.3528 0.537927 31.6034 1.1208 32.7291C1.70367 33.8549 2.54759 34.8224 3.58097 35.5496C2.22673 34.0912 1.47377 32.1688 1.47471 30.1721C1.47471 25.8796 4.89306 22.3781 9.13206 22.279Z" fill="#757575"/>
<path d="M21.8452 18.9483L21.8453 17.9926C20.6988 17.9938 19.5768 17.6574 18.6173 17.0255C19.4584 18.0011 20.591 18.6759 21.8452 18.9483Z" fill="#757575"/>
<path d="M77.4443 24.6304C76.1963 25.9891 75.5029 27.7717 75.5025 29.6226C75.5029 31.4733 76.1963 33.2559 77.4444 34.6145C78.6924 35.9731 80.4034 36.8077 82.2356 36.9518C82.0469 36.9669 81.7885 36.9767 81.5963 36.9767C79.6594 36.9767 77.8019 36.2019 76.4324 34.8228C75.0628 33.4436 74.2934 31.573 74.2934 29.6226C74.2934 27.6721 75.0628 25.8015 76.4324 24.4224C77.8019 23.0432 79.6594 22.2684 81.5963 22.2684C81.7885 22.2684 82.0469 22.2782 82.2356 22.2927C80.4033 22.437 78.6924 23.2717 77.4443 24.6304Z" fill="#757575"/>
<path d="M18.6173 17.0255C17.6766 15.9419 17.1591 14.5512 17.16 13.1119H16.0178C16.1657 13.9074 16.4722 14.6644 16.9191 15.3371C17.3659 16.0098 17.9436 16.5842 18.6173 17.0255Z" fill="#757575"/>
<path d="M8.07565 25.4766C7.27468 25.4763 6.49674 25.7464 5.86622 26.2438C5.2357 26.7412 4.78904 27.4372 4.59767 28.2204C4.40629 29.0037 4.48126 29.8289 4.81058 30.5642C5.1399 31.2994 5.70455 31.9022 6.41423 32.2762C5.97081 31.6646 5.73063 30.9275 5.72798 30.1702C5.72532 29.4129 5.96034 28.6742 6.39946 28.0594C6.83858 27.4446 7.45936 26.9853 8.17316 26.747C8.88696 26.5087 9.65727 26.5036 10.3741 26.7324V22.3518C10.0241 22.302 9.67106 22.2763 9.31753 22.2747C9.28037 22.2747 9.24362 22.276 9.20678 22.2772C9.18206 22.2781 9.157 22.2785 9.13206 22.279L9.13223 25.6406C8.79036 25.5322 8.43407 25.4769 8.07565 25.4766Z" fill="#757575"/>
<path d="M21.8452 18.9483V22.2829C19.7183 22.2855 17.6445 21.614 15.9177 20.3635V29.0831C15.9177 33.4382 12.3995 36.9808 8.07538 36.9808C6.46642 36.9822 4.89656 36.4823 3.58097 35.5496C4.31328 36.3448 5.2007 36.9789 6.1878 37.4126C7.1749 37.8463 8.2403 38.07 9.31726 38.0698C13.6414 38.0698 17.1599 34.5265 17.1599 30.172V21.4507C18.8868 22.701 20.9605 23.3725 23.0874 23.3701V19.0816C22.6699 19.0813 22.2533 19.0367 21.8452 18.9483Z" fill="#757575"/>
<path d="M83.247 22.2946C83.4375 22.2795 83.6971 22.2696 83.8916 22.2696C85.8284 22.2696 87.6859 23.0445 89.0555 24.4236C90.425 25.8028 91.1944 27.6734 91.1944 29.6238C91.1944 31.5743 90.425 33.4448 89.0555 34.824C87.6859 36.2032 85.8284 36.978 83.8916 36.978C83.6971 36.978 83.4375 36.9682 83.247 36.9531C85.0786 36.8081 86.7885 35.9731 88.0357 34.6146C89.2829 33.2561 89.9756 31.474 89.9756 29.6238C89.9756 27.7737 89.2829 25.9916 88.0357 24.6331C86.7885 23.2746 85.0786 22.4395 83.247 22.2946Z" fill="#757575"/>
</svg>
