<svg width="98" height="53" viewBox="0 0 98 53" fill="none" xmlns="http://www.w3.org/2000/svg">
<path d="M85.5569 35.6459H93.5008V32.551H91.8782V28.5179C91.8782 25.7736 93.8253 25.1713 95.3068 25.1713H97.2821V21.0403H95.6879C93.8819 21.0403 92.2167 21.9084 91.4689 23.2947V21.2082H85.4156V24.3589H87.1656V32.551H85.5569V35.6459ZM75.7077 35.6459H83.793V32.551H82.0717V16.279H75.4115V19.402H77.3591V32.551H75.7077V35.6459ZM67.5665 32.2988C66.1414 32.2988 64.7441 31.4027 64.7441 28.5741C64.7441 25.1713 66.3954 24.5691 67.5382 24.5691C68.8644 24.5691 70.0354 25.6333 70.0354 28.2801C70.0354 32.089 68.3141 32.2151 67.5665 32.2988ZM68.5822 35.8139C72.6457 35.8139 74.833 32.7894 74.833 28.252C74.833 23.8969 72.8011 21.0403 68.667 21.0403C67.2136 21.0403 65.7603 21.5865 64.8856 22.2586V16.279H58.1688V19.402H60.1163V35.6459H64.5894V34.3715C65.732 35.3239 67.1006 35.8139 68.5822 35.8139ZM31.4727 35.6459H39.5014V32.551H37.8646V27.1598C37.8646 26.3755 38.5419 24.7651 40.6019 24.7651C42.2666 24.7651 42.6055 25.7736 42.6055 26.9639V32.551H40.983V35.6459H48.9552V32.551H47.29V27.1598C47.29 26.3755 47.8968 24.7651 49.9708 24.7651C51.65 24.7651 52.0593 25.7736 52.0593 26.9639V32.551H50.465V35.6459H58.395V32.551H56.772V27.51C56.772 24.5411 55.6432 21.0403 51.1845 21.0403C48.9835 21.0403 47.1774 22.0764 46.4153 23.3508C45.4556 21.9084 44.0023 21.0403 41.8296 21.0403C40.1079 21.0403 38.2173 21.7682 37.2012 23.1548V21.2082H31.1766V24.3589H33.1236V32.551H31.4727V35.6459ZM19.6061 35.8139C21.2708 35.8139 23.19 35.0998 24.234 33.8254V35.6459H29.7227V32.551H28.326V21.2082H21.6945V24.3589H23.585V29.8204C23.585 30.2548 23.2183 32.089 20.735 32.089C19.1402 32.089 18.8441 31.1367 18.8441 29.9322V21.2082H13.9621V30.1286C13.9621 32.355 14.9777 35.8139 19.6061 35.8139ZM8.69908 35.6459C5.7641 35.6459 3.57704 34.1475 3.57704 30.5625V24.8213H0.910034V21.7125C3.84489 20.9561 5.07252 18.4497 5.21397 16.279H8.26149V21.2082H11.8171V24.8213H8.26149V29.8204C8.26149 31.3189 9.02362 31.8369 10.2368 31.8369H11.9585V35.6459H8.69908Z" fill="#757575"/>
</svg>
