<svg width="93" height="53" viewBox="0 0 93 53" fill="none" xmlns="http://www.w3.org/2000/svg">
<path d="M29.6232 15.3243C29.5923 16.0923 29.2081 16.8292 28.4694 17.535C27.6391 18.3327 26.6549 18.7316 25.5173 18.7316C23.7648 18.7316 22.9183 17.9649 22.9804 16.4303C23.0099 15.6326 23.4791 14.8647 24.3863 14.1278C25.2935 13.3922 26.3004 13.0231 27.4084 13.0231C28.0542 13.0231 28.592 13.2773 29.0234 13.783C29.4534 14.29 29.6529 14.8038 29.6232 15.3243Z" fill="#757575"/>
<path fill-rule="evenodd" clip-rule="evenodd" d="M30.6151 35.7294C30.4428 35.8936 30.2659 36.0555 30.0843 36.2152C28.0231 38.0026 25.9635 38.8964 23.9038 38.8964C22.9493 38.8964 22.2188 38.5882 21.7119 37.9714C21.2051 37.355 20.9664 36.5546 20.9975 35.5675C21.027 34.5508 21.3425 32.9784 21.9423 30.8514C22.5422 28.7247 22.8428 27.5837 22.8428 27.4294C22.8428 26.6289 22.5651 26.2274 22.0125 26.2274C21.8382 26.2274 21.3629 26.5163 20.5864 27.0917C20.0012 28.8437 18.7274 30.9865 16.7651 33.5197C13.972 37.162 11.609 38.9834 9.67599 38.9834C8.47893 38.9834 7.46524 37.8746 6.63759 35.6558L4.9795 29.5554C4.36479 27.3378 3.7056 26.2278 3.00071 26.2278C2.84703 26.2278 2.30916 26.5524 1.38843 27.1988L0.421997 25.9493C1.43569 25.0556 2.43581 24.1619 3.41993 23.2668C4.77189 22.0946 5.78702 21.4781 6.46367 21.4159C8.06238 21.2617 9.04649 22.3582 9.41579 24.7055C9.81477 27.2379 10.0911 28.813 10.2461 29.4296C10.7071 31.5306 11.214 32.58 11.7681 32.58C12.198 32.58 12.8437 31.8984 13.7052 30.5357C14.5651 29.1727 15.0261 28.1358 15.0881 27.4232C15.2108 26.2468 14.7498 25.6572 13.7052 25.6572C13.213 25.6572 12.7062 25.7709 12.1846 25.9953C13.1942 22.6773 15.1232 21.0656 17.9701 21.1575C19.8715 21.2136 20.8674 22.3337 20.9577 24.518C21.4167 24.101 21.8756 23.6838 22.3346 23.2663C23.657 22.0941 24.641 21.4776 25.2881 21.4154C26.3019 21.3235 27.0473 21.6223 27.5244 22.3146C28.0002 23.0068 28.1769 23.9045 28.0556 25.0106C27.6552 26.886 27.2238 29.2668 26.7628 32.1548C26.7318 33.4772 27.2089 34.1369 28.1931 34.1369C28.6231 34.1369 29.3913 33.6814 30.4994 32.7675L30.5393 32.7346C30.61 32.0903 30.7235 31.3246 30.8806 30.4379C31.1341 29.0073 31.2756 27.8933 31.3053 27.0929C31.3659 26.5399 31.2271 26.2626 30.8901 26.2626C30.7054 26.2626 30.1824 26.5749 29.3211 27.1984L28.2144 25.949C28.368 25.8273 29.3358 24.9322 31.1206 23.2665C32.4118 22.0645 33.2881 21.448 33.7491 21.4169C34.5485 21.3547 35.1943 21.6859 35.6862 22.4106C36.1783 23.1354 36.4249 23.9763 36.4249 24.9322C36.4249 25.2405 36.3939 25.5339 36.3333 25.8111C36.7943 25.1027 37.3322 24.4848 37.9481 23.9601C39.3622 22.7271 40.9462 22.032 42.6987 21.8778C44.2056 21.7549 45.2814 22.1092 45.9286 22.942C46.4501 23.6207 46.6955 24.5929 46.6658 25.8571C46.8816 25.6733 47.112 25.4717 47.3588 25.2555C48.0651 24.4225 48.7567 23.7601 49.4333 23.2665C50.5709 22.4336 51.7558 21.9712 52.9851 21.8778C54.4612 21.7549 55.522 22.1078 56.1679 22.9379C56.7204 23.614 56.9672 24.5821 56.9066 25.8408C56.8754 26.7021 56.6679 27.9543 56.2838 29.5983C55.8981 31.2424 55.7067 32.1862 55.7067 32.4322C55.6758 33.0785 55.7379 33.5234 55.8914 33.7694C56.0452 34.0155 56.4131 34.137 56.9983 34.137C57.261 34.137 57.6501 33.9669 58.1659 33.6261C58.1174 33.2376 58.0972 32.8338 58.1055 32.4145C58.1352 29.9173 59.2433 27.5431 61.4268 25.2904C63.8251 22.8243 66.6544 21.5899 69.914 21.5899C72.9281 21.5899 74.5266 22.8215 74.7113 25.2824C74.834 26.8507 73.9727 28.4664 72.1288 30.1282C70.1593 31.9441 67.683 33.0973 64.7013 33.5894C65.2539 34.3587 66.0841 34.7428 67.1922 34.7428C69.4057 34.7428 71.82 34.179 74.4349 33.0486C74.5506 32.9996 74.6648 32.9505 74.7774 32.9013C74.7569 32.7131 74.7415 32.5212 74.7313 32.3256C74.5763 29.6768 75.5292 27.2431 77.5916 25.0256C79.8051 22.5622 82.5872 21.3305 85.9398 21.3305C88.0915 21.3305 89.7205 22.0552 90.8292 23.502C91.8745 24.827 92.3504 26.5359 92.2592 28.629C92.1358 31.4629 91.0905 33.9116 89.1223 35.9746C87.1541 38.0381 84.709 39.0696 81.7879 39.0696C79.3589 39.0696 77.5135 38.2841 76.2531 36.713C75.9693 36.3531 75.7248 35.9653 75.5195 35.5499C75.1899 35.755 74.8437 35.9601 74.4809 36.1652C71.2214 38.0445 67.9149 38.9829 64.5638 38.9829C62.0727 38.9829 60.2879 38.15 59.2122 36.4857C59.1334 36.3686 59.0587 36.2493 58.9883 36.1277C58.9555 36.157 58.9225 36.1862 58.8894 36.2153C56.8284 38.0028 54.7686 38.8965 52.7089 38.8965C50.7084 38.8965 49.7407 37.7877 49.8025 35.5676C49.8322 34.5806 50.025 33.3949 50.3781 32.0076C50.7314 30.6204 50.9242 29.5414 50.9551 28.7708C50.9862 27.5998 50.6315 27.0132 49.8901 27.0132C49.0882 27.0132 48.1324 27.9704 47.0217 29.8821C45.849 31.8873 45.2154 33.8302 45.1237 35.7109C45.0617 37.0386 45.1911 38.0569 45.512 38.7653C43.366 38.8276 41.8627 38.472 41.0054 37.7013C40.2371 37.0225 39.8852 35.8976 39.9473 34.3238C39.9768 33.3368 40.1278 32.3498 40.4002 31.3628C40.6712 30.3758 40.8221 29.4969 40.8531 28.7248C40.9151 27.5838 40.4986 27.0132 39.6062 27.0132C38.8351 27.0132 38.0035 27.8933 37.1111 29.651C36.2187 31.4087 35.7254 33.2448 35.6336 35.1567C35.5717 36.8846 35.6821 38.0866 35.964 38.7653C33.853 38.8276 32.3539 38.3812 31.467 37.4267C31.0618 36.9868 30.778 36.4212 30.6151 35.7294ZM69.2683 26.8994C69.2978 26.0719 68.9609 25.6568 68.2545 25.6568C67.3325 25.6568 66.3969 26.2938 65.4452 27.5674C64.4936 28.8409 64.0016 30.0605 63.972 31.226C63.9544 31.226 63.9544 31.4261 63.972 31.8249C65.4762 31.2733 66.7812 30.4297 67.8866 29.2938C68.7762 28.3123 69.2371 27.5133 69.2683 26.8994ZM86.7004 26.1601C86.9617 26.855 87.0773 27.6204 87.0462 28.4546C86.985 29.9378 86.5391 31.3589 85.7094 32.7189C84.7254 34.3577 83.5404 35.1756 82.1573 35.1756C81.5413 35.1756 81.0641 34.8363 80.7271 34.1562C80.4197 33.5695 80.2811 32.8893 80.312 32.116C80.3726 30.5407 80.8336 29.0577 81.6964 27.6664C82.71 25.9668 84.0014 25.1162 85.5705 25.1162C86.0612 25.1162 86.4379 25.4651 86.7004 26.1601Z" fill="#757575"/>
</svg>
