<svg width="78" height="53" viewBox="0 0 78 53" fill="none" xmlns="http://www.w3.org/2000/svg">
<path d="M67.5006 22.5391C67.4715 23.1027 67.4383 23.7465 67.0833 24.1925C67.0551 24.2252 67.0251 24.2562 66.9937 24.2857C66.8194 24.471 66.5974 24.6043 66.3521 24.6711L66.3047 24.682C66.0391 24.7437 65.7612 24.7251 65.5063 24.6285C65.4672 24.6161 65.4288 24.6015 65.3912 24.5851C64.8786 24.3405 64.5677 23.7772 64.2961 23.285C64.2666 23.2315 64.2374 23.1786 64.2086 23.1273L63.8071 22.4121C62.9566 20.8971 62.106 19.382 61.269 17.8589C61.1736 17.685 61.0757 17.5131 60.978 17.3414C60.7004 16.8536 60.4238 16.3675 60.2061 15.8428C60.1856 15.7935 60.1647 15.7438 60.1436 15.6935C59.9137 15.1474 59.6613 14.5475 59.7823 13.9604C60.0166 12.8262 61.4005 12.2343 62.3849 11.9118C62.6872 11.815 62.9963 11.7331 63.3086 11.6582C63.6209 11.5832 63.9356 11.5245 64.2499 11.4809C65.2758 11.3389 66.7793 11.2636 67.4844 12.1792C67.8499 12.6543 67.8848 13.3029 67.9167 13.8943C67.9196 13.9493 67.9225 14.0037 67.9257 14.0575C67.9593 14.6257 67.923 15.185 67.8866 15.7462C67.8738 15.9425 67.8611 16.1391 67.8513 16.3364C67.772 17.953 67.6759 19.5691 67.5798 21.1849C67.5565 21.5775 67.5331 21.9702 67.51 22.3629C67.5067 22.4204 67.5036 22.4794 67.5006 22.5391Z" fill="#757575"/>
<path d="M76.7824 21.9138C76.4402 21.1957 75.9802 20.5401 75.4215 19.9742C75.3492 19.9024 75.2718 19.836 75.1898 19.7754C75.1142 19.7186 75.0355 19.6659 74.9543 19.6173C74.8708 19.5715 74.785 19.5302 74.6971 19.4936C74.5233 19.4254 74.337 19.3946 74.1505 19.4033C73.9721 19.4135 73.7981 19.4623 73.6404 19.5465C73.4014 19.6653 73.1428 19.8563 72.7989 20.1761C72.7672 20.2075 72.7301 20.2417 72.693 20.2758C72.6745 20.2929 72.6559 20.31 72.638 20.3267C72.4108 20.5404 72.1632 20.7938 71.8807 21.083C71.8103 21.155 71.7378 21.2292 71.6629 21.3055C71.0825 21.8921 70.511 22.4818 69.943 23.0779L68.9267 24.1318C68.7406 24.3244 68.5711 24.5324 68.4202 24.7536C68.2915 24.9406 68.2005 25.1508 68.1522 25.3726C68.1243 25.5427 68.1283 25.7165 68.1643 25.885L68.1695 25.9075C68.2498 26.2567 68.4623 26.5609 68.7623 26.7561C69.0624 26.9514 69.4265 27.0224 69.778 26.9544C69.8337 26.9463 69.8769 26.9367 69.9032 26.9303L75.4029 25.6596C75.8034 25.5676 76.2064 25.4751 76.5657 25.2665C76.823 25.1172 77.0678 24.9693 77.2356 24.6709C77.3254 24.507 77.3797 24.326 77.3951 24.1398C77.4782 23.4014 77.0926 22.5627 76.7824 21.9138Z" fill="#757575"/>
<path d="M62.7998 28.5677L64.0537 28.278C64.0801 28.2719 64.1233 28.2619 64.176 28.2449C64.5218 28.1519 64.8182 27.9282 65.0026 27.621C65.187 27.3138 65.2453 26.9471 65.1649 26.598L65.1597 26.5754C65.1185 26.4081 65.0464 26.25 64.9471 26.1094C64.8066 25.9312 64.6329 25.7821 64.4354 25.6705C64.203 25.5379 63.9597 25.4252 63.7083 25.3338L62.3343 24.8321C61.5631 24.5454 60.792 24.2659 60.0137 23.9934C59.9141 23.9579 59.8175 23.9233 59.7238 23.8898C59.3424 23.7532 59.0079 23.6334 58.7097 23.5412C58.6862 23.5339 58.662 23.5267 58.6377 23.5195C58.5894 23.5051 58.5411 23.4907 58.4993 23.4762C58.0501 23.3386 57.7344 23.2815 57.4673 23.2796C57.2889 23.273 57.1112 23.3055 56.9465 23.3746C56.7748 23.4486 56.6207 23.558 56.4941 23.6956C56.4312 23.7672 56.372 23.842 56.3168 23.9197C56.265 23.9989 56.2176 24.0809 56.1746 24.1652C56.1272 24.2555 56.0866 24.3493 56.0529 24.4457C55.7978 25.1995 55.6708 25.9908 55.677 26.7865C55.6816 27.5059 55.7009 28.4293 56.0963 29.0552C56.1916 29.2158 56.3195 29.3546 56.4717 29.4627C56.7533 29.6572 57.0381 29.6829 57.3342 29.7042C57.749 29.734 58.1516 29.6403 58.5524 29.5472L62.7963 28.5665L62.7998 28.5677Z" fill="#757575"/>
<path d="M66.6142 29.5691C66.461 29.3534 66.2435 29.1919 65.9929 29.1075C65.7422 29.023 65.4713 29.02 65.2187 29.0989C65.1594 29.1186 65.1016 29.1426 65.0457 29.1707C64.9594 29.2147 64.877 29.2661 64.7995 29.3242C64.5736 29.4916 64.3835 29.709 64.2103 29.927C64.1949 29.9465 64.1799 29.9683 64.1647 29.9905C64.1367 30.0313 64.1079 30.0733 64.074 30.1042L63.2025 31.303C62.7085 31.9747 62.2213 32.6481 61.7382 33.3321C61.6749 33.4209 61.6133 33.5068 61.5535 33.5902C61.3158 33.9218 61.107 34.213 60.935 34.4766C60.9204 34.4989 60.9055 34.5221 60.8907 34.5453C60.8642 34.5867 60.8379 34.628 60.813 34.6634C60.5549 35.0628 60.4087 35.3542 60.3337 35.6138C60.2773 35.7864 60.2594 35.9691 60.2814 36.1492C60.3054 36.3369 60.3686 36.5173 60.4668 36.6789C60.519 36.7599 60.5753 36.8382 60.6355 36.9137C60.698 36.9861 60.7644 37.0552 60.8343 37.1205C60.909 37.1918 60.9889 37.2574 61.0734 37.3169C61.675 37.7354 62.3335 38.0361 63.0263 38.2686C63.6027 38.4599 64.2019 38.5744 64.8084 38.6091C64.9115 38.6144 65.015 38.6121 65.1178 38.6024C65.2131 38.5941 65.308 38.5808 65.4019 38.5626C65.4958 38.5406 65.5884 38.5138 65.6795 38.4819C65.8566 38.4157 66.0178 38.313 66.1529 38.1805C66.2807 38.0525 66.379 37.8982 66.441 37.7283C66.5418 37.4772 66.608 37.1583 66.6516 36.6849C66.6542 36.64 66.6593 36.5891 66.6644 36.5383C66.667 36.5129 66.6695 36.4875 66.6718 36.4629C66.6988 36.1542 66.7143 35.8032 66.732 35.4037C66.7368 35.2949 66.7418 35.1824 66.7472 35.0663C66.7898 34.2321 66.8232 33.4015 66.8496 32.5685L66.9056 31.0875C66.9184 30.7464 66.9079 30.3684 66.8133 30.0287C66.7717 29.866 66.7046 29.7108 66.6142 29.5691Z" fill="#757575"/>
<path d="M75.6042 31.2425C76.0108 31.4883 76.2686 31.6873 76.4504 31.8867C76.5766 32.017 76.6726 32.1735 76.7317 32.3451C76.7918 32.5241 76.8136 32.7138 76.7959 32.9019C76.7846 32.9977 76.7683 33.0928 76.7471 33.1869C76.7226 33.2794 76.6933 33.3707 76.6596 33.4603C76.6234 33.5571 76.5802 33.6512 76.5304 33.7418C76.172 34.3821 75.7113 34.9414 75.19 35.4543C74.7554 35.8794 74.2668 36.2453 73.7366 36.5425C73.6463 36.5925 73.5524 36.6358 73.4558 36.6723C73.3664 36.7066 73.2752 36.7363 73.1826 36.7612C73.0886 36.7827 72.9936 36.7991 72.8979 36.8104C72.7096 36.8291 72.5197 36.808 72.3401 36.7485C72.1693 36.6895 72.0135 36.5939 71.8834 36.4684C71.6827 36.2849 71.4847 36.0291 71.2383 35.6227C71.2156 35.582 71.1878 35.5367 71.1601 35.4916C71.1477 35.4715 71.1354 35.4514 71.1236 35.4318C70.9626 35.1629 70.7929 34.8499 70.5995 34.4933C70.5497 34.4015 70.4984 34.3069 70.4453 34.2094C70.0427 33.4788 69.65 32.7459 69.262 32.0087L68.5646 30.7017C68.4041 30.4007 68.2489 30.0569 68.1851 29.7094C68.1533 29.5454 68.1472 29.3774 68.1671 29.2115C68.2104 28.9507 68.3349 28.7102 68.5228 28.5242C68.7107 28.3383 68.9523 28.2164 69.2135 28.1759C69.2754 28.1676 69.3378 28.1638 69.4003 28.1646C69.4972 28.1662 69.5937 28.1762 69.6888 28.1945C69.9649 28.2459 70.2308 28.3579 70.4817 28.4778C70.504 28.4886 70.5268 28.5015 70.5499 28.5146C70.5933 28.5392 70.6379 28.5644 70.682 28.5773L71.988 29.2699C72.727 29.6582 73.4592 30.0499 74.1908 30.4516C74.2952 30.5083 74.3963 30.5629 74.4941 30.6157C74.8425 30.8037 75.1491 30.9691 75.4133 31.1281C75.4346 31.1408 75.4564 31.1542 75.4783 31.1675C75.5217 31.1941 75.5652 31.2207 75.6042 31.2425Z" fill="#757575"/>
<path fill-rule="evenodd" clip-rule="evenodd" d="M31.4872 19.1722C31.4872 18.0951 32.3647 17.2153 33.4236 17.2153C34.4674 17.2153 35.3146 18.0951 35.3599 19.1873V34.463C35.3599 35.54 34.4825 36.4198 33.4236 36.4198C32.3344 36.4198 31.4872 35.54 31.4872 34.463V19.1722ZM29.6868 28.6075C29.6717 28.9109 29.596 29.4722 29.2027 29.8818C28.7791 30.3217 28.2042 30.4279 27.8715 30.4279C26.4872 30.4354 25.1031 30.4393 23.719 30.4431C22.3348 30.4468 20.9505 30.4506 19.5663 30.4582C19.6873 30.8375 19.9293 31.4139 20.474 31.9449C20.8067 32.2634 21.1244 32.4454 21.2605 32.5212C21.427 32.6275 22.0018 32.9308 22.7129 32.9308C23.4692 32.9308 24.1349 32.6881 24.7854 32.3544L24.8397 32.3263C25.2918 32.092 25.7583 31.8503 26.2528 31.7628C26.7368 31.6869 27.2512 31.7779 27.6293 32.1117C28.0832 32.5061 28.2647 33.0825 28.0983 33.6741C27.9017 34.3416 27.3419 34.918 26.7519 35.2669C26.4192 35.4641 26.0561 35.631 25.693 35.7676C25.2241 35.9344 24.74 36.0558 24.2559 36.1316C23.7718 36.2074 23.2726 36.2378 22.7733 36.2226C22.5313 36.2226 22.2741 36.2226 22.0169 36.1923C21.7447 36.1619 21.4724 36.1013 21.2152 36.0406C20.7916 35.9496 20.3983 35.813 20.005 35.631C19.6267 35.4641 19.2486 35.2517 18.9006 35.0091C18.5527 34.7663 18.235 34.4782 17.9325 34.1747C17.645 33.8713 17.3728 33.5376 17.1307 33.1736C16.3138 31.9297 15.9355 30.3975 16.0112 28.9109C16.0717 27.4546 16.5558 25.9984 17.4332 24.8152C17.5283 24.667 17.638 24.5409 17.7419 24.4215C17.7869 24.3699 17.8308 24.3195 17.8719 24.2691C18.9555 22.9444 20.4031 22.5252 21.0002 22.3522L21.0337 22.3425C22.7431 21.8571 24.1651 22.1757 24.74 22.3425C25.0274 22.4184 26.6461 22.919 27.9017 24.2691C27.9622 24.3297 28.1286 24.5269 28.3404 24.8152C29.1358 25.8987 29.4101 26.9076 29.503 27.2494L29.5053 27.2574C29.596 27.5912 29.6868 28.0463 29.6868 28.6075ZM20.8067 26.1046C19.9293 26.8176 19.6873 27.7277 19.6267 28.0159H26.2225C26.162 27.7429 25.9048 26.8176 25.0274 26.1046C24.1349 25.3916 23.1969 25.3461 22.9095 25.3461C22.6221 25.3461 21.6841 25.3916 20.8067 26.1046ZM45.8886 22.0847C44.1641 22.0847 42.5907 22.8584 41.4713 24.1174V24.0719C41.4259 23.0555 40.5787 22.2364 39.55 22.2364C38.4759 22.2364 37.6137 23.101 37.6137 24.178V38.7559C37.6137 39.833 38.4759 40.6977 39.55 40.6977C40.6242 40.6977 41.4864 39.833 41.4864 38.7559V34.2051C42.6058 35.449 44.1641 36.2378 45.9037 36.2378C49.368 36.2378 52.1818 33.0977 52.1818 29.184C52.1667 25.2702 49.3529 22.0847 45.8886 22.0847ZM45.0415 33.0674C43.0748 33.0674 41.4713 31.3532 41.4713 29.2144C41.4713 27.0602 43.0597 25.3461 45.0415 25.3461C47.0081 25.3461 48.6116 27.0602 48.6116 29.2144C48.5965 31.3532 47.0081 33.0674 45.0415 33.0674ZM13.1067 30.2003L12.4714 31.5959C12.1839 32.2027 11.8965 32.8247 11.6242 33.4466C11.5373 33.6375 11.4498 33.8322 11.3611 34.0297C10.152 36.72 8.71698 39.913 5.58822 40.5914C4.07543 40.9251 1.79113 40.4701 0.943974 39.0441C0.0968162 37.603 1.35243 35.9495 2.9711 36.3288C3.22641 36.3857 3.47745 36.5109 3.73063 36.6371C4.15253 36.8474 4.58034 37.0608 5.04362 36.9659C5.48232 36.89 5.75462 36.5715 6.10256 36.1619C6.58665 35.6006 6.79844 35.0091 6.88921 34.6602C6.88164 34.645 6.87408 34.626 6.86652 34.607C6.85895 34.5881 6.85139 34.5691 6.84382 34.554C6.45003 33.8193 6.10612 33.1625 5.81882 32.6138C5.63156 32.2561 5.46835 31.9443 5.33104 31.6869C5.04933 31.1529 4.83653 30.7492 4.67104 30.4353C4.18781 29.5185 4.10801 29.3671 3.8939 28.9716C3.42494 28.0766 2.92572 27.2119 2.41137 26.3473C1.85164 25.4067 1.27679 24.3601 1.74575 23.2527C2.12395 22.3577 3.09212 21.9026 4.01492 22.1908C4.9886 22.4864 5.41978 23.4128 5.82303 24.2793C5.89593 24.436 5.96793 24.5906 6.04205 24.7393C6.69255 26.0287 7.32791 27.3181 7.96328 28.6075C8.01922 28.7357 8.1047 28.9105 8.20858 29.1229C8.30137 29.3126 8.40885 29.5323 8.52302 29.7756C8.58272 29.902 8.63949 30.0196 8.69087 30.1259C8.75658 30.262 8.81335 30.3797 8.8558 30.4733C9.15084 29.7377 9.44957 29.0057 9.74838 28.2738C10.0471 27.5419 10.3459 26.8099 10.6409 26.0743C10.6491 26.0331 10.7195 25.8762 10.8256 25.6396C10.9153 25.4396 11.0305 25.1828 11.1552 24.891C11.1975 24.7913 11.2399 24.6879 11.2833 24.5821C11.6763 23.6252 12.1487 22.4746 13.1975 22.1605C13.9539 21.9329 14.8011 22.2364 15.2398 22.8735C15.4667 23.192 15.5575 23.5561 15.5726 23.9201C15.5847 24.7252 15.1959 25.5892 14.8621 26.3306C14.7808 26.5112 14.7028 26.6844 14.6347 26.8478C14.6315 26.8541 14.6183 26.8838 14.5945 26.9371C14.5023 27.1444 14.2509 27.7088 13.8177 28.6379C13.6614 28.9709 13.5115 29.304 13.3595 29.6412C13.2763 29.8262 13.1925 30.0123 13.1067 30.2003Z" fill="#757575"/>
<path d="M53.6497 34.9611H53.79C53.8591 34.9611 53.9146 34.9434 53.9561 34.9079C53.9985 34.8715 54.0197 34.8257 54.0197 34.7703C54.0197 34.7054 54.0011 34.6591 53.9639 34.6313C53.9267 34.6028 53.8678 34.5885 53.7873 34.5885H53.6497V34.9611ZM54.2132 34.7651C54.2132 34.8343 54.1945 34.8958 54.1573 34.9495C54.121 35.0023 54.0695 35.0416 54.0029 35.0676L54.3119 35.5805H54.0937L53.825 35.1208H53.6497V35.5805H53.4576V34.4236H53.7964C53.9401 34.4236 54.0452 34.4518 54.1119 34.508C54.1794 34.5643 54.2132 34.65 54.2132 34.7651ZM52.8408 35.0014C52.8408 34.8283 52.8841 34.666 52.9707 34.5145C53.0572 34.363 53.1762 34.2436 53.3278 34.1562C53.4792 34.0687 53.6424 34.0251 53.8171 34.0251C53.9903 34.0251 54.1525 34.0684 54.3041 34.1549C54.4555 34.2415 54.575 34.3605 54.6624 34.5119C54.7498 34.6634 54.7935 34.8265 54.7935 35.0014C54.7935 35.1719 54.7516 35.332 54.6676 35.4818C54.5836 35.6316 54.4659 35.7514 54.3145 35.8414C54.1629 35.9315 53.9972 35.9764 53.8171 35.9764C53.638 35.9764 53.4727 35.9318 53.3212 35.8427C53.1698 35.7527 53.0516 35.6328 52.9668 35.4831C52.8828 35.3334 52.8408 35.1728 52.8408 35.0014ZM52.9772 35.0014C52.9772 35.1512 53.0148 35.2914 53.0901 35.422C53.1654 35.5519 53.268 35.6544 53.3979 35.7298C53.5285 35.8042 53.6683 35.8414 53.8171 35.8414C53.9678 35.8414 54.1076 35.8038 54.2365 35.7285C54.3655 35.6531 54.4676 35.5514 54.5429 35.4233C54.6191 35.2944 54.6572 35.1537 54.6572 35.0014C54.6572 34.8508 54.6195 34.711 54.5443 34.582C54.4689 34.4531 54.3668 34.3509 54.2378 34.2757C54.1097 34.1995 53.9695 34.1613 53.8171 34.1613C53.6665 34.1613 53.5268 34.199 53.3979 34.2744C53.2689 34.3496 53.1663 34.4518 53.0901 34.5807C53.0148 34.7088 52.9772 34.849 52.9772 35.0014Z" fill="#757575"/>
</svg>
